<svg width="188" height="24" viewBox="0 0 188 24" fill="none" xmlns="http://www.w3.org/2000/svg">
<path d="M16.4971 23.6562H11.5906V11.9656C11.5906 10.8653 11.2351 10.063 10.524 9.55875C9.86034 9.05445 9.10185 8.80229 8.24855 8.80229C7.39526 8.80229 6.63677 9.05445 5.97309 9.55875C5.30941 10.063 4.97758 10.8653 4.97758 11.9656V23.6562H0V12.9284C0 9.81088 0.829596 7.72493 2.48879 6.67049C4.19539 5.61604 6.0679 5.04298 8.10634 4.95129C9.19666 4.95129 10.2633 5.06591 11.3062 5.29514C12.3491 5.52436 13.2972 5.98281 14.1505 6.67049C14.8616 6.0745 15.6912 5.66189 16.6393 5.43266C17.6348 5.15759 18.6541 4.99714 19.697 4.95129C21.7828 4.95129 23.7027 5.47852 25.4567 6.53296C27.2107 7.5874 28.0877 9.71919 28.0877 12.9284V23.6562H25.599C24.8879 23.6562 24.2953 23.4499 23.8213 23.0372C23.3946 22.5788 23.1813 22.0057 23.1813 21.3181V11.9656C23.1813 10.8653 22.8257 10.063 22.1147 9.55875C21.451 9.05445 20.6925 8.80229 19.8392 8.80229C18.9859 8.80229 18.2037 9.05445 17.4926 9.55875C16.8289 10.063 16.4971 10.8653 16.4971 11.9656V23.6562Z" fill="white"/>
<path d="M35.6862 22.0057C34.6907 21.1805 33.9796 20.0802 33.5529 18.7049C33.1263 17.2837 32.913 15.8166 32.913 14.3037C32.913 13.0659 33.0789 11.8281 33.4107 10.5903C33.79 9.35243 34.3588 8.32091 35.1173 7.4957C36.3498 6.12034 37.9379 5.31805 39.8816 5.08882C41.8252 4.81375 43.5792 4.95129 45.1436 5.50143C46.945 6.18911 48.2723 7.38109 49.1256 9.07736C49.9315 10.5903 50.3345 12.3553 50.3345 14.3725C50.3345 15.8395 50.1685 17.1003 49.8367 18.1547C49.5049 19.2092 49.0782 20.1031 48.5568 20.8367C47.419 22.3496 45.9732 23.2894 44.2192 23.6562C42.6548 24.0688 41.0667 24.0917 39.4549 23.7249C37.8905 23.404 36.6343 22.831 35.6862 22.0057ZM39.0994 9.90257C38.1039 10.957 37.6535 12.5387 37.7483 14.6476C37.8431 16.7106 38.2461 18.1547 38.9571 18.9799C39.2416 19.3467 39.7393 19.6676 40.4504 19.9427C41.1615 20.1719 41.8726 20.1948 42.5837 20.0115C43.3422 19.7822 44.0058 19.255 44.5747 18.4298C45.1436 17.6046 45.4517 16.2751 45.4991 14.4413C45.4991 12.7908 45.2147 11.553 44.6458 10.7278C44.1243 9.90258 43.5081 9.37536 42.797 9.14613C42.0859 8.91691 41.3748 8.91691 40.6637 9.14613C39.9527 9.32951 39.4312 9.58166 39.0994 9.90257Z" fill="white"/>
<path d="M71.5146 23.6562H69.0258C68.3147 23.6562 67.7221 23.4499 67.2481 23.0372C66.8214 22.5788 66.6081 22.0057 66.6081 21.3181V11.9656C66.6081 10.8653 66.2525 10.063 65.5415 9.55875C64.8778 9.05445 64.1193 8.80229 63.266 8.80229C62.4127 8.80229 61.6542 9.05445 60.9905 9.55875C60.3269 10.063 59.995 10.8653 59.995 11.9656V23.6562H55.0175V12.9284C55.0175 9.81088 55.847 7.72493 57.5062 6.67049C59.2128 5.61604 61.0854 5.04298 63.1238 4.95129C65.2096 4.95129 67.1295 5.47852 68.8836 6.53296C70.6376 7.5874 71.5146 9.71919 71.5146 12.9284V23.6562Z" fill="white"/>
<path d="M78.5441 22.0057C77.5486 21.1805 76.8375 20.0802 76.4109 18.7049C75.9842 17.2837 75.7709 15.8166 75.7709 14.3037C75.7709 13.0659 75.9368 11.8281 76.2687 10.5903C76.6479 9.35243 77.2168 8.32091 77.9753 7.4957C79.2078 6.12034 80.7959 5.31805 82.7395 5.08882C84.6831 4.81375 86.4371 4.95129 88.0015 5.50143C89.8029 6.18911 91.1303 7.38109 91.9836 9.07736C92.7895 10.5903 93.1924 12.3553 93.1924 14.3725C93.1924 15.8395 93.0265 17.1003 92.6947 18.1547C92.3628 19.2092 91.9362 20.1031 91.4147 20.8367C90.277 22.3496 88.8311 23.2894 87.0771 23.6562C85.5127 24.0688 83.9246 24.0917 82.3129 23.7249C80.7485 23.404 79.4922 22.831 78.5441 22.0057ZM81.9573 9.90257C80.9618 10.957 80.5114 12.5387 80.6063 14.6476C80.7011 16.7106 81.104 18.1547 81.8151 18.9799C82.0995 19.3467 82.5973 19.6676 83.3084 19.9427C84.0194 20.1719 84.7305 20.1948 85.4416 20.0115C86.2001 19.7822 86.8638 19.255 87.4326 18.4298C88.0015 17.6046 88.3096 16.2751 88.357 14.4413C88.357 12.7908 88.0726 11.553 87.5038 10.7278C86.9823 9.90258 86.366 9.37536 85.6549 9.14613C84.9439 8.91691 84.2328 8.91691 83.5217 9.14613C82.8106 9.32951 82.2892 9.58166 81.9573 9.90257Z" fill="white"/>
<path d="M97.4487 17.6046H102.284C102.332 18.5215 102.687 19.2092 103.351 19.6676C104.062 20.1261 105.01 20.3553 106.195 20.3553C107.048 20.3553 107.783 20.1948 108.399 19.8739C108.968 19.553 109.253 19.1175 109.253 18.5673C109.253 17.7421 108.257 17.1232 106.266 16.7106C105.413 16.5731 104.773 16.4355 104.346 16.298C101.834 15.702 100.151 14.9914 99.2976 14.1662C98.3494 13.341 97.8754 12.2407 97.8754 10.8653C97.8754 9.12321 98.5628 7.67909 99.9375 6.53296C101.36 5.47852 103.209 4.95129 105.484 4.95129C107.949 4.95129 109.916 5.47852 111.386 6.53296C112.761 7.67909 113.495 9.16906 113.59 11.0029H110.533C109.632 11.0029 108.945 10.6132 108.471 9.83382C108.281 9.65044 108.091 9.46704 107.902 9.28366C107.333 8.87105 106.551 8.66475 105.555 8.66475C104.607 8.66475 103.896 8.80229 103.422 9.07736C102.995 9.35243 102.782 9.76504 102.782 10.3152C102.782 11.0487 104.014 11.6676 106.479 12.1719C106.764 12.2636 107.001 12.3324 107.191 12.3782C107.428 12.4241 107.641 12.447 107.831 12.447C110.248 13.043 111.931 13.7307 112.879 14.51C113.78 15.3352 114.23 16.4355 114.23 17.8109C114.23 19.8281 113.472 21.3868 111.955 22.4871C110.533 23.4957 108.399 24 105.555 24C102.853 24 100.838 23.4728 99.5109 22.4183C98.1361 21.3639 97.4487 19.8281 97.4487 17.8109V17.6046Z" fill="white"/>
<path d="M121.26 22.0057C120.264 21.1805 119.553 20.0802 119.127 18.7049C118.7 17.2837 118.487 15.8166 118.487 14.3037C118.487 13.0659 118.653 11.8281 118.984 10.5903C119.364 9.35243 119.932 8.32091 120.691 7.4957C121.924 6.12034 123.512 5.31805 125.455 5.08882C127.399 4.81375 129.153 4.95129 130.717 5.50143C132.519 6.18911 133.846 7.38109 134.699 9.07736C135.505 10.5903 135.908 12.3553 135.908 14.3725C135.908 15.8395 135.742 17.1003 135.41 18.1547C135.079 19.2092 134.652 20.1031 134.13 20.8367C132.993 22.3496 131.547 23.2894 129.793 23.6562C128.228 24.0688 126.64 24.0917 125.029 23.7249C123.464 23.404 122.208 22.831 121.26 22.0057ZM124.673 9.90257C123.678 10.957 123.227 12.5387 123.322 14.6476C123.417 16.7106 123.82 18.1547 124.531 18.9799C124.815 19.3467 125.313 19.6676 126.024 19.9427C126.735 20.1719 127.446 20.1948 128.157 20.0115C128.916 19.7822 129.58 19.255 130.148 18.4298C130.717 17.6046 131.025 16.2751 131.073 14.4413C131.073 12.7908 130.788 11.553 130.219 10.7278C129.698 9.90258 129.082 9.37536 128.371 9.14613C127.66 8.91691 126.949 8.91691 126.237 9.14613C125.526 9.32951 125.005 9.58166 124.673 9.90257Z" fill="white"/>
<path d="M157.088 23.6562H154.599C153.888 23.6562 153.296 23.4499 152.822 23.0372C152.395 22.5788 152.182 22.0057 152.182 21.3181V11.9656C152.182 10.8653 151.826 10.063 151.115 9.55875C150.451 9.05445 149.693 8.80229 148.84 8.80229C147.986 8.80229 147.228 9.05445 146.564 9.55875C145.901 10.063 145.569 10.8653 145.569 11.9656V23.6562H140.591V12.9284C140.591 9.81088 141.421 7.72493 143.08 6.67049C144.787 5.61604 146.659 5.04298 148.697 4.95129C150.783 4.95129 152.703 5.47852 154.457 6.53296C156.211 7.5874 157.088 9.71919 157.088 12.9284V23.6562Z" fill="white"/>
<path d="M162.198 5.36389H164.758C165.421 5.36389 165.99 5.59312 166.464 6.05157C166.938 6.51003 167.175 7.06018 167.175 7.70201V23.6562H162.198V5.36389ZM162.198 0H164.758C165.421 0 165.99 0.229223 166.464 0.687675C166.938 1.14613 167.175 1.69628 167.175 2.33811V3.78223H162.198V0Z" fill="white"/>
<path d="M184.445 18.0172H188C187.479 19.9427 186.483 21.4097 185.013 22.4183C183.544 23.4728 181.695 24 179.467 24C176.765 24 174.655 23.1519 173.138 21.4556C171.621 19.8052 170.863 17.4441 170.863 14.3725C170.863 11.4384 171.598 9.14613 173.067 7.4957C174.584 5.79942 176.694 4.95129 179.396 4.95129C182.24 4.95129 184.445 5.77651 186.009 7.42694C186.862 8.43554 187.479 9.60458 187.858 10.9341H182.88C182.643 10.4756 182.406 10.1318 182.169 9.90257C181.553 9.26074 180.676 8.93983 179.538 8.93983C178.495 8.93983 177.642 9.26074 176.978 9.90257C176.125 10.8195 175.698 12.3324 175.698 14.4413C175.698 16.5501 176.125 18.0401 176.978 18.9112C177.594 19.6447 178.519 20.0115 179.751 20.0115C180.557 20.0115 181.245 19.851 181.814 19.5301C181.956 19.4842 182.074 19.4155 182.169 19.3238C182.311 19.1862 182.454 19.0487 182.596 18.9112C182.691 18.7736 182.88 18.5903 183.165 18.361C183.449 18.1318 183.876 18.0172 184.445 18.0172Z" fill="white"/>
</svg>
