<svg width="69" height="110" viewBox="0 0 69 110" fill="none" xmlns="http://www.w3.org/2000/svg">
<g filter="url(#filter0_b_1395_14501)">
<path fill-rule="evenodd" clip-rule="evenodd" d="M43.0987 0.0236866C42.9087 0.0573624 42.505 0.253918 42.2018 0.460784C41.8984 0.667512 41.5109 1.08138 41.3406 1.38048C41.031 1.92438 41.031 1.92437 41.0286 27.0504C41.0264 52.1764 41.0264 52.1764 40.4393 51.7829C40.1163 51.5665 39.5724 51.232 39.2305 51.0395C38.8886 50.847 38.1095 50.4998 37.4993 50.2679C36.8891 50.036 35.8323 49.7493 35.1508 49.6307C34.4693 49.512 33.3833 49.415 32.7374 49.415C32.0916 49.415 31.0037 49.5122 30.3198 49.6308C29.636 49.7495 28.4548 50.0888 27.695 50.3847C26.9352 50.6806 25.8472 51.2213 25.2774 51.5859C24.7075 51.9507 23.8514 52.6088 23.3748 53.0484C22.8983 53.4881 22.1365 54.3388 21.682 54.9389C21.2275 55.539 20.6105 56.5363 20.3108 57.1549C20.0111 57.7736 19.5977 58.8365 19.3922 59.5169C19.0565 60.6274 19.0171 60.9791 19.0065 62.9532C18.9961 64.8677 19.0369 65.3038 19.3215 66.3208C19.5012 66.9634 19.8811 67.9913 20.1658 68.6051C20.4506 69.2188 20.9506 70.1157 21.2772 70.5982C21.6037 71.0805 22.373 71.9774 22.987 72.591C23.6008 73.2046 24.5416 73.9883 25.0776 74.3328C25.6136 74.6771 26.4798 75.1536 27.0026 75.3918C27.5252 75.63 28.5477 75.9873 29.2745 76.1858C30.4371 76.5031 30.8539 76.5466 32.7374 76.5466C34.6312 76.5466 35.0346 76.5041 36.2271 76.1787C36.9686 75.9764 38.0876 75.5565 38.7138 75.2456C39.3399 74.9348 40.2252 74.4139 40.681 74.088C41.1369 73.7621 41.861 73.1647 42.2899 72.7603C42.719 72.3559 43.3899 71.6009 43.781 71.0823C44.1719 70.5638 44.7154 69.6979 44.9887 69.158C45.2621 68.6182 45.6055 67.8362 45.7518 67.4204C45.8983 67.0046 46.1178 66.2315 46.2396 65.7023C46.4354 64.8517 46.4672 62.6118 46.5133 46.3952C46.5421 36.3053 46.5933 28.0226 46.6271 27.9888C46.6611 27.9551 47.1399 28.1008 47.6913 28.3125C48.2426 28.5243 49.4769 29.0813 50.4343 29.5504C51.3915 30.0195 52.7592 30.7615 53.4736 31.1993C54.1878 31.637 55.4872 32.5239 56.361 33.1699C57.2532 33.8297 58.8012 35.1924 59.892 36.2783C60.9602 37.3417 62.2863 38.7983 62.8388 39.5151C63.3914 40.2319 64.2216 41.4226 64.6836 42.1611C65.1455 42.8995 65.5623 43.5037 65.61 43.5037C65.6577 43.5037 65.955 43.1128 66.2706 42.6349C66.5864 42.1571 67.0671 41.281 67.3387 40.688C67.6101 40.095 67.9812 39.1098 68.163 38.4985C68.3448 37.8873 68.5611 37.0778 68.6436 36.6998C68.7261 36.3218 68.8557 35.3346 68.9314 34.5061C69.0251 33.4825 69.0228 32.4913 68.9246 31.4134C68.8449 30.541 68.6247 29.2087 68.4352 28.4527C68.2455 27.6967 67.9344 26.6452 67.7437 26.116C67.5531 25.5868 67.0888 24.5406 66.712 23.7913C66.3353 23.0419 65.6903 21.9251 65.2787 21.3097C64.867 20.6942 64.1035 19.6994 63.5818 19.0992C63.0602 18.4988 62.0569 17.5032 61.3525 16.8866C60.648 16.27 59.3766 15.2742 58.5271 14.6736C57.6777 14.0731 55.9721 12.8839 54.7369 12.031C53.5017 11.1779 51.9408 9.96465 51.2681 9.33457C50.5955 8.70463 49.6098 7.61449 49.0776 6.91239C48.5456 6.21014 47.8813 5.27849 47.6014 4.84208C47.3215 4.40567 46.9804 3.78713 46.8433 3.46755C46.7064 3.14798 46.5149 2.55515 46.4178 2.15007C46.3131 1.71325 46.0715 1.2209 45.8238 0.940219C45.5941 0.680021 45.2436 0.383398 45.0449 0.281271C44.8462 0.179007 44.4049 0.0654723 44.0639 0.0290474C43.723 -0.00751493 43.2886 -0.00985182 43.0987 0.0236866ZM29.7672 31.3518C29.5393 31.3837 28.6514 31.5055 27.7942 31.6226C26.937 31.7396 25.4139 32.0455 24.4095 32.3026C23.4052 32.5595 22.0861 32.9494 21.4783 33.1691C20.8704 33.3887 20.0311 33.7131 19.6132 33.8899C19.1953 34.0668 18.2117 34.5381 17.4273 34.9374C16.6429 35.3367 15.3063 36.124 14.4571 36.6869C13.6079 37.2498 12.3196 38.2031 11.5945 38.8056C10.8693 39.4081 9.65584 40.5473 8.89767 41.3373C8.13964 42.1273 7.07381 43.3609 6.52923 44.0785C5.98478 44.7963 5.18946 45.9347 4.76188 46.6085C4.33431 47.2823 3.6227 48.5757 3.18035 49.4829C2.73799 50.3901 2.15708 51.7199 1.88921 52.4381C1.62134 53.1563 1.21738 54.4552 0.991642 55.3246C0.765767 56.194 0.510047 57.3074 0.423427 57.7988C0.336669 58.2901 0.206104 59.2798 0.1333 59.998C0.0548305 60.771 0.000421195 70.1921 6.74609e-06 83.09C-0.000545852 101.009 0.0326138 105.001 0.186927 105.577C0.290125 105.963 0.552038 106.581 0.769071 106.952C0.985966 107.322 1.44684 107.909 1.79319 108.255C2.13939 108.601 2.82474 109.08 3.31614 109.32C3.80753 109.56 4.58256 109.824 5.03845 109.908C5.49435 109.993 6.30252 110.025 6.8344 109.98C7.36627 109.935 8.14336 109.768 8.56127 109.61C8.97917 109.451 9.63898 109.083 10.0273 108.792C10.4158 108.501 10.9664 107.948 11.251 107.562C11.5356 107.176 11.9017 106.538 12.0645 106.143C12.353 105.444 12.362 105.218 12.4295 96.9396C12.4985 88.4531 12.4985 88.4531 14.1563 89.349C15.0681 89.8418 16.4669 90.578 17.2647 90.985C18.0625 91.392 19.368 91.9859 20.1658 92.3049C20.9636 92.624 21.9894 93.0032 22.4453 93.1475C22.9012 93.292 23.8648 93.5637 24.5866 93.7515C25.3085 93.9392 26.645 94.2173 27.5568 94.3693C28.5039 94.5273 30.2512 94.6808 31.6322 94.7272C33.0414 94.7748 34.7449 94.7447 35.7161 94.6551C36.6324 94.5706 37.938 94.4064 38.6172 94.2904C39.2964 94.1746 40.3495 93.9541 40.9573 93.8004C41.5652 93.6469 42.8086 93.2747 43.7203 92.9732C44.6321 92.6718 46.1863 92.0315 47.1741 91.5506C48.1618 91.0695 49.5152 90.3333 50.1816 89.9145C50.8479 89.4958 51.9669 88.722 52.6683 88.1951C53.3695 87.6682 54.5193 86.7002 55.2231 86.0438C55.927 85.3875 56.9578 84.3152 57.5137 83.661C58.0697 83.0067 58.8654 82.0076 59.2818 81.4406C59.6983 80.8736 60.3229 79.9458 60.6698 79.3788C61.0165 78.8118 61.4952 77.9872 61.7334 77.5464C61.9714 77.1056 62.4783 76.0319 62.8596 75.1605C63.2409 74.2892 63.7624 72.887 64.0185 72.0447C64.2748 71.2023 64.6101 69.8946 64.7638 69.1386C64.9176 68.3826 65.1138 67.2525 65.2 66.6273C65.2862 66.0021 65.3548 64.3629 65.3526 62.9848C65.3501 61.4756 65.2672 59.9598 65.1443 59.1733C65.032 58.4551 64.8698 57.4964 64.784 57.0428C64.6982 56.5892 64.5115 55.7851 64.3689 55.2559C64.2264 54.7267 63.9772 53.895 63.8152 53.4076C63.653 52.9202 63.3339 52.0542 63.1059 51.4832C62.8778 50.9123 62.3262 49.7337 61.88 48.8644C61.4339 47.995 60.5765 46.5414 59.9749 45.6342C59.3732 44.727 58.2944 43.3044 57.5774 42.4728C56.8604 41.6412 55.8116 40.5338 55.2467 40.0117C54.6818 39.4897 53.7577 38.6955 53.1933 38.2467C52.6287 37.7979 51.7145 37.1272 51.1618 36.756C50.609 36.3849 50.0918 36.0813 50.0124 36.0813C49.9136 36.0813 49.868 38.6415 49.868 44.1875C49.868 52.2939 49.868 52.2939 50.5626 53.5875C50.9447 54.2988 51.4465 55.3966 51.6776 56.0267C51.9088 56.6569 52.1892 57.5145 52.3007 57.9324C52.4123 58.3502 52.5933 59.187 52.7028 59.7918C52.8218 60.4482 52.9033 61.7893 52.9048 63.1183C52.9062 64.343 52.8447 65.6729 52.7682 66.0735C52.6916 66.4741 52.5623 67.1112 52.4808 67.4892C52.3992 67.8671 52.1743 68.6712 51.981 69.276C51.7877 69.8808 51.2937 71.049 50.8831 71.8721C50.4725 72.6952 49.7841 73.8704 49.3534 74.4837C48.9226 75.097 47.8831 76.2811 47.0432 77.1152C46.1914 77.9611 44.9666 79.0017 44.2729 79.4688C43.5891 79.9293 42.4701 80.5829 41.7862 80.9211C41.1024 81.2594 40.0766 81.6979 39.5068 81.8957C38.9369 82.0933 37.9422 82.3766 37.2964 82.5253C36.6505 82.6739 35.3761 82.8635 34.4643 82.9465C33.2986 83.0527 32.3278 83.0558 31.1942 82.9567C30.3074 82.8793 29.1573 82.7234 28.6384 82.6105C28.1195 82.4976 27.4774 82.3487 27.2115 82.2797C26.9455 82.2106 26.2928 82.0022 25.7609 81.8166C25.229 81.6311 24.2343 81.1973 23.5505 80.8528C22.8667 80.5084 21.8113 79.885 21.2053 79.4678C20.5992 79.0505 19.634 78.2877 19.0602 77.7725C18.4865 77.2573 17.6888 76.4648 17.2876 76.0112C16.8864 75.5576 16.225 74.6917 15.8177 74.0869C15.4104 73.4821 14.8158 72.4651 14.4963 71.8267C14.1768 71.1884 13.733 70.1427 13.5102 69.5028C13.2874 68.8631 12.9746 67.7462 12.8152 67.021C12.5817 65.9589 12.5235 65.2074 12.5165 63.1594C12.5097 61.214 12.5658 60.342 12.7553 59.4482C12.8914 58.8056 13.128 57.8529 13.2809 57.3312C13.4338 56.8094 13.7974 55.8351 14.089 55.1661C14.3807 54.4973 14.9112 53.4707 15.268 52.8847C15.6249 52.2989 16.3061 51.323 16.7817 50.7158C17.2574 50.1088 18.1821 49.1078 18.8367 48.4913C19.4912 47.875 20.5987 46.9899 21.2977 46.5246C21.9967 46.0595 23.0382 45.444 23.6123 45.157C24.1861 44.87 25.1884 44.4482 25.8394 44.2196C26.4905 43.991 27.423 43.7077 27.9116 43.5899C28.4004 43.4722 29.2043 43.3028 29.6982 43.2134C30.192 43.1239 31.6219 43.0545 32.8756 43.0591C34.5511 43.0652 35.4937 43.1367 36.4329 43.3293C37.7108 43.5911 37.7108 43.5911 37.7108 37.5827C37.7108 31.5742 37.7108 31.5742 37.1237 31.4929C36.8007 31.448 35.1067 31.385 33.3591 31.3527C31.6115 31.3202 29.9952 31.3199 29.7672 31.3518Z" fill="white" fill-opacity="0.45"/>
</g>
<defs>
<filter id="filter0_b_1395_14501" x="-50" y="-50" width="169" height="210" filterUnits="userSpaceOnUse" color-interpolation-filters="sRGB">
<feFlood flood-opacity="0" result="BackgroundImageFix"/>
<feGaussianBlur in="BackgroundImageFix" stdDeviation="25"/>
<feComposite in2="SourceAlpha" operator="in" result="effect1_backgroundBlur_1395_14501"/>
<feBlend mode="normal" in="SourceGraphic" in2="effect1_backgroundBlur_1395_14501" result="shape"/>
</filter>
</defs>
</svg>
