<svg width="14" height="15" viewBox="0 0 14 15" fill="none" xmlns="http://www.w3.org/2000/svg">
<path d="M6.994 1.6665C3.774 1.6665 1.1665 4.27984 1.1665 7.49984C1.1665 10.7198 3.774 13.3332 6.994 13.3332C10.2198 13.3332 12.8332 10.7198 12.8332 7.49984C12.8332 4.27984 10.2198 1.6665 6.994 1.6665ZM6.99984 12.1665C4.4215 12.1665 2.33317 10.0782 2.33317 7.49984C2.33317 4.9215 4.4215 2.83317 6.99984 2.83317C9.57817 2.83317 11.6665 4.9215 11.6665 7.49984C11.6665 10.0782 9.57817 12.1665 6.99984 12.1665ZM6.8715 4.58317H6.8365C6.60317 4.58317 6.4165 4.76984 6.4165 5.00317V7.7565C6.4165 7.96067 6.5215 8.15317 6.70234 8.25817L9.12317 9.71067C9.3215 9.82734 9.57817 9.769 9.69484 9.57067C9.72413 9.52344 9.74362 9.47079 9.75213 9.41587C9.76065 9.36095 9.75803 9.30487 9.74442 9.25099C9.73081 9.1971 9.7065 9.1465 9.67293 9.10221C9.63935 9.05792 9.59721 9.02083 9.549 8.99317L7.2915 7.6515V5.00317C7.2915 4.76984 7.10484 4.58317 6.8715 4.58317Z" fill="white"/>
</svg>
