<svg width="15" height="15" viewBox="0 0 15 15" fill="none" xmlns="http://www.w3.org/2000/svg">
<path d="M4.19811 7.5C4.19811 7.30462 4.3565 7.14623 4.55189 7.14623H7.14623V4.55189C7.14623 4.3565 7.30462 4.19811 7.5 4.19811C7.69538 4.19811 7.85377 4.3565 7.85377 4.55189V7.14623H10.4481C10.6435 7.14623 10.8019 7.30462 10.8019 7.5C10.8019 7.69538 10.6435 7.85377 10.4481 7.85377H7.85377V10.4481C7.85377 10.6435 7.69538 10.8019 7.5 10.8019C7.30462 10.8019 7.14623 10.6435 7.14623 10.4481V7.85377H4.55189C4.3565 7.85377 4.19811 7.69538 4.19811 7.5Z" fill="#FFF4E3"/>
<path fill-rule="evenodd" clip-rule="evenodd" d="M1.25 7.5C1.25 4.04822 4.04822 1.25 7.5 1.25C10.9518 1.25 13.75 4.04822 13.75 7.5C13.75 10.9518 10.9518 13.75 7.5 13.75C4.04822 13.75 1.25 10.9518 1.25 7.5ZM7.5 1.95755C4.43899 1.95755 1.95755 4.43899 1.95755 7.5C1.95755 10.561 4.43899 13.0425 7.5 13.0425C10.561 13.0425 13.0425 10.561 13.0425 7.5C13.0425 4.43899 10.561 1.95755 7.5 1.95755Z" fill="#FFF4E3"/>
<path d="M4.19811 7.5C4.19811 7.30462 4.3565 7.14623 4.55189 7.14623H7.14623V4.55189C7.14623 4.3565 7.30462 4.19811 7.5 4.19811C7.69538 4.19811 7.85377 4.3565 7.85377 4.55189V7.14623H10.4481C10.6435 7.14623 10.8019 7.30462 10.8019 7.5C10.8019 7.69538 10.6435 7.85377 10.4481 7.85377H7.85377V10.4481C7.85377 10.6435 7.69538 10.8019 7.5 10.8019C7.30462 10.8019 7.14623 10.6435 7.14623 10.4481V7.85377H4.55189C4.3565 7.85377 4.19811 7.69538 4.19811 7.5Z" stroke="#FFF4E3" stroke-width="1.2" stroke-miterlimit="10" stroke-linecap="round" stroke-linejoin="round"/>
<path fill-rule="evenodd" clip-rule="evenodd" d="M1.25 7.5C1.25 4.04822 4.04822 1.25 7.5 1.25C10.9518 1.25 13.75 4.04822 13.75 7.5C13.75 10.9518 10.9518 13.75 7.5 13.75C4.04822 13.75 1.25 10.9518 1.25 7.5ZM7.5 1.95755C4.43899 1.95755 1.95755 4.43899 1.95755 7.5C1.95755 10.561 4.43899 13.0425 7.5 13.0425C10.561 13.0425 13.0425 10.561 13.0425 7.5C13.0425 4.43899 10.561 1.95755 7.5 1.95755Z" stroke="#FFF4E3" stroke-width="1.2" stroke-miterlimit="10" stroke-linecap="round" stroke-linejoin="round"/>
</svg>
