<svg width="14" height="15" viewBox="0 0 14 15" fill="none" xmlns="http://www.w3.org/2000/svg">
<path d="M7 0.5C3.13306 0.5 0 3.63306 0 7.5C0 11.3669 3.13306 14.5 7 14.5C10.8669 14.5 14 11.3669 14 7.5C14 3.63306 10.8669 0.5 7 0.5ZM2.48387 7.5H1.58065C1.58065 4.51089 4.01089 2.08065 7 2.08065V2.98387C4.51048 2.98387 2.48387 5.01048 2.48387 7.5ZM7 10.2097C5.50403 10.2097 4.29032 8.99597 4.29032 7.5C4.29032 6.00403 5.50403 4.79032 7 4.79032C8.49597 4.79032 9.70968 6.00403 9.70968 7.5C9.70968 8.99597 8.49597 10.2097 7 10.2097ZM7 6.59677C6.5004 6.59677 6.09677 7.0004 6.09677 7.5C6.09677 7.9996 6.5004 8.40323 7 8.40323C7.4996 8.40323 7.90323 7.9996 7.90323 7.5C7.90323 7.0004 7.4996 6.59677 7 6.59677Z" fill="white"/>
</svg>
