<svg width="14" height="15" viewBox="0 0 14 15" fill="none" xmlns="http://www.w3.org/2000/svg">
<path d="M12.8332 11.5833C12.8332 11.8928 12.7103 12.1895 12.4915 12.4083C12.2727 12.6271 11.9759 12.75 11.6665 12.75H2.33317C2.02375 12.75 1.72701 12.6271 1.50821 12.4083C1.28942 12.1895 1.1665 11.8928 1.1665 11.5833V3.41667C1.1665 3.10725 1.28942 2.8105 1.50821 2.59171C1.72701 2.37292 2.02375 2.25 2.33317 2.25H5.24984L6.4165 4H11.6665C11.9759 4 12.2727 4.12292 12.4915 4.34171C12.7103 4.5605 12.8332 4.85725 12.8332 5.16667V11.5833Z" stroke="white" stroke-width="2" stroke-linecap="round" stroke-linejoin="round"/>
<path d="M7 6.9165V10.4165" stroke="white" stroke-width="2" stroke-linecap="round" stroke-linejoin="round"/>
<path d="M5.25 8.6665H8.75" stroke="white" stroke-width="2" stroke-linecap="round" stroke-linejoin="round"/>
</svg>
