<svg width="41" height="40" viewBox="0 0 41 40" fill="none" xmlns="http://www.w3.org/2000/svg">
<circle cx="20.5" cy="20" r="19" fill="#434E58" stroke="#FF9800" stroke-width="2"/>
<path d="M27.7 22.7713C29.2752 21.8618 30.0628 21.4071 30.3271 20.8135C30.5576 20.2957 30.5576 19.7043 30.3271 19.1865C30.0628 18.5929 29.2752 18.1382 27.7 17.2287L19.3 12.379C17.7248 11.4695 16.9372 11.0148 16.2909 11.0828C15.7272 11.142 15.2151 11.4377 14.882 11.8962C14.5 12.422 14.5 13.3314 14.5 15.1503V24.8497C14.5 26.6686 14.5 27.578 14.882 28.1038C15.2151 28.5623 15.7272 28.858 16.2909 28.9172C16.9372 28.9852 17.7248 28.5305 19.3 27.621L27.7 22.7713Z" fill="#FF9800"/>
</svg>
