<svg width="15" height="14" viewBox="0 0 15 14" fill="none" xmlns="http://www.w3.org/2000/svg">
<path d="M1.10953 1.79707C2.71676 0.123632 5.35224 0.123632 6.95947 1.79707L6.96006 1.79768L7.49117 2.35235L8.02286 1.79707C9.63009 0.123632 12.2656 0.123632 13.8728 1.79707L13.8741 1.79843C15.5026 3.50557 15.2301 6.06466 13.9139 7.79059L13.913 7.79171C12.5878 9.52023 11.0568 10.9137 9.86239 11.8727C9.26402 12.3532 8.74723 12.7269 8.37868 12.9814C8.19434 13.1086 8.04688 13.2062 7.94462 13.2725C7.89349 13.3057 7.85363 13.331 7.8261 13.3484L7.79416 13.3684L7.78536 13.3738L7.78279 13.3754L7.78197 13.3759C7.60684 13.4832 7.38604 13.4854 7.20905 13.3811L7.20787 13.3804L7.20518 13.3788L7.19598 13.3734L7.16269 13.3533C7.13402 13.3359 7.09258 13.3105 7.03951 13.2773C6.93339 13.2109 6.78067 13.1132 6.59048 12.9857C6.21027 12.7309 5.67933 12.3565 5.07098 11.8752C3.85745 10.915 2.3206 9.51704 1.06051 7.7799L1.05981 7.77893C-0.187113 6.05214 -0.528668 3.50275 1.10953 1.79707Z" fill="#FF0000"/>
</svg>
