<svg width="15" height="14" viewBox="0 0 15 14" fill="none" xmlns="http://www.w3.org/2000/svg">
<path fill-rule="evenodd" clip-rule="evenodd" d="M1.10953 1.76325C2.71676 0.0789155 5.35224 0.0789155 6.95947 1.76325L6.96006 1.76386L7.49117 2.32214L8.02286 1.76325C9.63009 0.0789155 12.2656 0.0789155 13.8728 1.76325L13.8741 1.76462C15.5026 3.48288 15.2301 6.05863 13.9139 7.79581L13.913 7.79693C12.5878 9.53671 11.0568 10.9393 9.86239 11.9045C9.26402 12.3881 8.74723 12.7643 8.37868 13.0204C8.19434 13.1485 8.04688 13.2467 7.94462 13.3134C7.89349 13.3468 7.85363 13.3723 7.8261 13.3898L7.79416 13.4099L7.78536 13.4154L7.78279 13.417L7.78197 13.4175C7.78197 13.4175 7.78146 13.4178 7.49116 12.9411C7.20928 13.4229 7.20905 13.4228 7.20905 13.4228L7.20787 13.4221L7.20518 13.4205L7.19598 13.4149L7.16269 13.3947C7.13402 13.3772 7.09258 13.3517 7.03951 13.3182C6.93339 13.2514 6.78067 13.153 6.59048 13.0247C6.21027 12.7683 5.67933 12.3915 5.07098 11.907C3.85745 10.9406 2.3206 9.5335 1.06051 7.78504L1.05981 7.78407C-0.187113 6.04603 -0.528668 3.48004 1.10953 1.76325ZM7.49116 12.9411L7.20905 13.4228C7.38604 13.5277 7.60684 13.5255 7.78197 13.4175L7.49116 12.9411ZM7.48575 12.2788C7.56018 12.2289 7.64789 12.1693 7.7474 12.1001C8.09733 11.8569 8.59225 11.4968 9.16677 11.0325C10.318 10.1021 11.7772 8.76274 13.0308 7.11718C14.1143 5.68682 14.2187 3.74916 13.0708 2.53725C11.9009 1.31184 9.99421 1.31198 8.8244 2.53767L7.89241 3.51734C7.78762 3.62749 7.64268 3.68978 7.49116 3.68978C7.33965 3.68978 7.19471 3.62749 7.08992 3.51734L6.15814 2.53789C4.98813 1.31194 3.08081 1.31182 1.91086 2.53789C0.771947 3.73145 0.906343 5.65957 1.96025 7.12893C3.14009 8.76589 4.59355 10.1008 5.76038 11.03C6.34228 11.4934 6.84907 11.8529 7.20905 12.0958C7.3146 12.167 7.40744 12.2281 7.48575 12.2788Z" fill="white"/>
</svg>
