<svg width="51" height="50" viewBox="0 0 51 50" fill="none" xmlns="http://www.w3.org/2000/svg">
<path d="M25.4991 14.0047C26.2448 14.0047 26.8494 14.6092 26.8494 15.355V23.6497H35.1441C35.8899 23.6497 36.4945 24.2543 36.4945 25C36.4945 25.7458 35.8899 26.3503 35.1441 26.3503H26.8494V34.6451C26.8494 35.3908 26.2448 35.9954 25.4991 35.9954C24.7533 35.9954 24.1488 35.3908 24.1488 34.6451V26.3503H15.854C15.1083 26.3503 14.5037 25.7458 14.5037 25C14.5037 24.2543 15.1083 23.6497 15.854 23.6497H24.1488V15.355C24.1488 14.6092 24.7533 14.0047 25.4991 14.0047Z" fill="#FF9800"/>
<path fill-rule="evenodd" clip-rule="evenodd" d="M25.4998 4.1665C13.9939 4.1665 4.6665 13.4939 4.6665 24.9998C4.6665 36.5058 13.9939 45.8332 25.4998 45.8332C37.0058 45.8332 46.3332 36.5058 46.3332 24.9998C46.3332 13.4939 37.0058 4.1665 25.4998 4.1665ZM7.75292 24.9998C7.75292 15.1985 15.6985 7.25292 25.4998 7.25292C35.3012 7.25292 43.2468 15.1985 43.2468 24.9998C43.2468 34.8012 35.3012 42.7468 25.4998 42.7468C15.6985 42.7468 7.75292 34.8012 7.75292 24.9998Z" fill="#FF9800"/>
</svg>
