<svg width="30" height="30" viewBox="0 0 30 30" fill="none" xmlns="http://www.w3.org/2000/svg">
<path fill-rule="evenodd" clip-rule="evenodd" d="M4.72078 4.72078C5.18181 4.25974 5.9293 4.25974 6.39033 4.72078L15 13.3304L23.6097 4.72078C24.0707 4.25974 24.8182 4.25974 25.2792 4.72078C25.7403 5.18181 25.7403 5.9293 25.2792 6.39033L16.6696 15L25.2792 23.6097C25.7403 24.0707 25.7403 24.8182 25.2792 25.2792C24.8182 25.7403 24.0707 25.7403 23.6097 25.2792L15 16.6696L6.39033 25.2792C5.9293 25.7403 5.18181 25.7403 4.72078 25.2792C4.25974 24.8182 4.25974 24.0707 4.72078 23.6097L13.3304 15L4.72078 6.39033C4.25974 5.9293 4.25974 5.18181 4.72078 4.72078Z" fill="white"/>
</svg>
