<svg width="40" height="40" viewBox="0 0 19 17" fill="none" xmlns="http://www.w3.org/2000/svg">
<g clip-path="url(#clip0_139_982)">
<path fill-rule="evenodd" clip-rule="evenodd" d="M0 1.20817C0 0.632874 0.46637 0.166504 1.04167 0.166504H17.7083C18.2836 0.166504 18.75 0.632874 18.75 1.20817C18.75 1.78347 18.2836 2.24984 17.7083 2.24984H1.04167C0.46637 2.24984 0 1.78347 0 1.20817Z" fill="white"/>
<path fill-rule="evenodd" clip-rule="evenodd" d="M0 8.49984C0 7.92454 0.46637 7.45817 1.04167 7.45817H17.7083C18.2836 7.45817 18.75 7.92454 18.75 8.49984C18.75 9.07513 18.2836 9.5415 17.7083 9.5415H1.04167C0.46637 9.5415 0 9.07513 0 8.49984Z" fill="white"/>
<path fill-rule="evenodd" clip-rule="evenodd" d="M0 15.7915C0 15.2162 0.46637 14.7498 1.04167 14.7498H17.7083C18.2836 14.7498 18.75 15.2162 18.75 15.7915C18.75 16.3668 18.2836 16.8332 17.7083 16.8332H1.04167C0.46637 16.8332 0 16.3668 0 15.7915Z" fill="white"/>
</g>
<defs>
<clipPath id="clip0_139_982">
<rect width="18.75" height="16.6667" fill="white" transform="translate(0 0.166504)"/>
</clipPath>
</defs>
</svg>
