<svg width="51" height="50" viewBox="0 0 51 50" fill="none" xmlns="http://www.w3.org/2000/svg">
<path d="M27.4468 10.4168C27.4468 9.26624 26.514 8.3335 25.3634 8.3335C24.2129 8.3335 23.2801 9.26624 23.2801 10.4168V22.9168H10.7801C9.62952 22.9168 8.69678 23.8496 8.69678 25.0002C8.69678 26.1508 9.62952 27.0835 10.7801 27.0835H23.2801V39.5835C23.2801 40.7341 24.2129 41.6668 25.3634 41.6668C26.514 41.6668 27.4468 40.7341 27.4468 39.5835V27.0835H39.9468C41.0974 27.0835 42.0301 26.1508 42.0301 25.0002C42.0301 23.8496 41.0974 22.9168 39.9468 22.9168H27.4468V10.4168Z" fill="#FF9800"/>
</svg>
