<svg width="18" height="17" viewBox="0 0 18 17" fill="none" xmlns="http://www.w3.org/2000/svg">
<path fill-rule="evenodd" clip-rule="evenodd" d="M1 0C0.447715 0 0 0.447715 0 1V7C0 7.55228 0.447716 8 1 8H17C17.5523 8 18 7.55228 18 7V1C18 0.447715 17.5523 0 17 0H1ZM1.6 1.6V6.4H16.4V1.6H1.6Z" fill="#ffffff"/>
<path d="M0.199951 11.5C0.199951 11.0582 0.558123 10.7 0.999951 10.7H17C17.4418 10.7 17.7999 11.0582 17.7999 11.5C17.7999 11.9418 17.4418 12.3 17 12.3H0.999951C0.558123 12.3 0.199951 11.9418 0.199951 11.5Z" fill="#ffffff"/>
<path d="M0.999951 14.7C0.558123 14.7 0.199951 15.0582 0.199951 15.5C0.199951 15.9418 0.558123 16.3 0.999951 16.3H17C17.4418 16.3 17.7999 15.9418 17.7999 15.5C17.7999 15.0582 17.4418 14.7 17 14.7H0.999951Z" fill="#ffffff"/>
</svg>
