<svg width="25" height="25" viewBox="0 0 25 25" fill="none" xmlns="http://www.w3.org/2000/svg">
<path fill-rule="evenodd" clip-rule="evenodd" d="M0 3.75C0 1.817 1.567 0.25 3.5 0.25H21C22.933 0.25 24.5 1.817 24.5 3.75V21.25C24.5 23.183 22.933 24.75 21 24.75H3.5C1.567 24.75 0 23.183 0 21.25V3.75ZM3.5 2.25C2.67157 2.25 2 2.92157 2 3.75V21.25C2 22.0784 2.67157 22.75 3.5 22.75H21C21.8284 22.75 22.5 22.0784 22.5 21.25V3.75C22.5 2.92157 21.8284 2.25 21 2.25H3.5Z" fill="white"/>
<path fill-rule="evenodd" clip-rule="evenodd" d="M6.25 7.5C6.25 6.94772 6.69772 6.5 7.25 6.5H17.25C17.8023 6.5 18.25 6.94772 18.25 7.5C18.25 8.05229 17.8023 8.5 17.25 8.5H7.25C6.69772 8.5 6.25 8.05229 6.25 7.5Z" fill="white"/>
<path fill-rule="evenodd" clip-rule="evenodd" d="M6.25 12.5C6.25 11.9477 6.69772 11.5 7.25 11.5H17.25C17.8023 11.5 18.25 11.9477 18.25 12.5C18.25 13.0523 17.8023 13.5 17.25 13.5H7.25C6.69772 13.5 6.25 13.0523 6.25 12.5Z" fill="white"/>
<path fill-rule="evenodd" clip-rule="evenodd" d="M6.25 17.5C6.25 16.9477 6.69772 16.5 7.25 16.5H17.25C17.8023 16.5 18.25 16.9477 18.25 17.5C18.25 18.0523 17.8023 18.5 17.25 18.5H7.25C6.69772 18.5 6.25 18.0523 6.25 17.5Z" fill="white"/>
</svg>
