<svg width="12" height="4" viewBox="0 0 12 4" fill="none" xmlns="http://www.w3.org/2000/svg">
<path fill-rule="evenodd" clip-rule="evenodd" d="M9.16675 1.99984C9.16675 1.404 9.65425 0.916504 10.2501 0.916504C10.8459 0.916504 11.3334 1.404 11.3334 1.99984C11.3334 2.59567 10.8459 3.08317 10.2501 3.08317C9.65425 3.08317 9.16675 2.59567 9.16675 1.99984Z" fill="white"/>
<path fill-rule="evenodd" clip-rule="evenodd" d="M7.08333 1.99984C7.08333 2.59567 6.59583 3.08317 6 3.08317C5.40417 3.08317 4.91667 2.59567 4.91667 1.99984C4.91667 1.404 5.40417 0.916504 6 0.916504C6.59583 0.916504 7.08333 1.404 7.08333 1.99984Z" fill="white"/>
<path fill-rule="evenodd" clip-rule="evenodd" d="M2.83366 1.99984C2.83366 2.59567 2.34616 3.08317 1.75033 3.08317C1.15449 3.08317 0.666992 2.59567 0.666992 1.99984C0.666992 1.404 1.15449 0.916504 1.75033 0.916504C2.34616 0.916504 2.83366 1.404 2.83366 1.99984Z" fill="white"/>
</svg>
