<svg width="32" height="31" viewBox="0 0 32 31" fill="none" xmlns="http://www.w3.org/2000/svg">
<path fill-rule="evenodd" clip-rule="evenodd" d="M13.4959 24.4095C13.2982 24.3984 13.1442 24.2291 13.1519 24.0313L13.3803 18.1416L7.00395 23.9419C6.85875 24.074 6.63212 24.0614 6.49777 23.9137C6.36342 23.766 6.37221 23.5392 6.51741 23.4071L12.8937 17.6067L7.00872 17.2782C6.81104 17.2672 6.65701 17.0978 6.66468 16.9C6.67235 16.7022 6.83882 16.5507 7.0365 16.5618L13.7856 16.9385C13.9833 16.9495 14.1373 17.1189 14.1296 17.3167L13.8677 24.0712C13.86 24.2691 13.6936 24.4205 13.4959 24.4095Z" fill="#FFF4E3"/>
<path fill-rule="evenodd" clip-rule="evenodd" d="M18.1008 6.34116C18.3027 6.3526 18.4603 6.52576 18.4526 6.72791L18.2242 12.7463L24.7341 6.82439C24.8823 6.68953 25.1139 6.70265 25.2513 6.85369C25.3887 7.00473 25.3799 7.23649 25.2316 7.37134L18.7218 13.2932L24.7348 13.6339C24.9368 13.6453 25.0943 13.8185 25.0866 14.0207C25.079 14.2228 24.909 14.3774 24.707 14.366L17.8111 13.9753C17.6091 13.9639 17.4516 13.7907 17.4592 13.5885L17.7212 6.68648C17.7288 6.48432 17.8988 6.32972 18.1008 6.34116Z" fill="#FFF4E3"/>
</svg>
