<svg width="28" height="23" viewBox="0 0 18 18" fill="#fff" xmlns="http://www.w3.org/2000/svg">
<path d="M11.8691 2.02235C11.9988 1.91115 12.1992 2.00333 12.1992 2.17421V3.49998C12.1992 3.94181 12.5574 4.29998 12.9992 4.29998C13.441 4.29998 13.7992 3.94181 13.7992 3.49998V2.17421C13.7992 0.636369 11.9954 -0.193267 10.8278 0.807543L5.75945 5.15184C5.7232 5.18291 5.67704 5.19998 5.62929 5.19998H1.99922C1.00511 5.19998 0.199219 6.00587 0.199219 6.99998V12C0.199219 12.9941 1.00511 13.8 1.99922 13.8H2.49922C2.94105 13.8 3.29922 13.4418 3.29922 13C3.29922 12.5582 2.94105 12.2 2.49922 12.2H1.99922C1.88876 12.2 1.79922 12.1104 1.79922 12V6.99998C1.79922 6.88953 1.88876 6.79998 1.99922 6.79998H5.62929C6.05898 6.79998 6.47448 6.64628 6.80072 6.36665L11.8691 2.02235Z" fill="#fff"/>
<path d="M13.7992 9.49998C13.7992 9.05816 13.441 8.69998 12.9992 8.69998C12.5574 8.69998 12.1992 9.05816 12.1992 9.49998V16.0391C12.1992 16.2024 12.014 16.2969 11.8818 16.201L8.3689 13.6525C8.01127 13.393 7.51103 13.4726 7.25158 13.8302C6.99213 14.1879 7.07172 14.6881 7.42935 14.9476L10.9422 17.496C12.1322 18.3593 13.7992 17.5092 13.7992 16.0391V9.49998Z" fill="#fff"/>
<path d="M17.526 3.60208C17.8585 3.31114 17.8922 2.80573 17.6013 2.47322C17.3103 2.14071 16.8049 2.10702 16.4724 2.39796L0.472426 16.398C0.139917 16.6889 0.106223 17.1943 0.397168 17.5268C0.688114 17.8593 1.19352 17.893 1.52603 17.6021L17.526 3.60208Z" fill="#fff"/>
</svg>
