<svg width="14" height="14" viewBox="0 0 14 14" fill="none" xmlns="http://www.w3.org/2000/svg">
<path d="M0 2.89062C0 2.12398 0.304547 1.38874 0.846644 0.846644C1.38874 0.304547 2.12398 0 2.89062 0C3.65727 0 4.39251 0.304547 4.93461 0.846644C5.4767 1.38874 5.78125 2.12398 5.78125 2.89062V10.9844C5.78125 11.751 5.4767 12.4863 4.93461 13.0284C4.39251 13.5705 3.65727 13.875 2.89062 13.875C2.12398 13.875 1.38874 13.5705 0.846644 13.0284C0.304547 12.4863 0 11.751 0 10.9844V2.89062ZM8.09375 2.89062C8.09375 2.12398 8.3983 1.38874 8.94039 0.846644C9.48249 0.304547 10.2177 0 10.9844 0C11.751 0 12.4863 0.304547 13.0284 0.846644C13.5705 1.38874 13.875 2.12398 13.875 2.89062V10.9844C13.875 11.751 13.5705 12.4863 13.0284 13.0284C12.4863 13.5705 11.751 13.875 10.9844 13.875C10.2177 13.875 9.48249 13.5705 8.94039 13.0284C8.3983 12.4863 8.09375 11.751 8.09375 10.9844V2.89062Z" fill="#FF9800"/>
</svg>
