<svg width="44" height="45" viewBox="0 0 44 45" fill="none" xmlns="http://www.w3.org/2000/svg">
<g clip-path="url(#clip0_110_2476)">
<rect y="0.5" width="44" height="44" rx="22" fill="#FF9800"/>
<path d="M22 41.75C16.8946 41.75 11.9983 39.7219 8.38819 36.1118C4.77812 32.5017 2.75 27.6054 2.75 22.5C2.75 17.3946 4.77812 12.4983 8.38819 8.88819C11.9983 5.27812 16.8946 3.25 22 3.25C27.1054 3.25 32.0017 5.27812 35.6118 8.88819C39.2219 12.4983 41.25 17.3946 41.25 22.5C41.25 27.6054 39.2219 32.5017 35.6118 36.1118C32.0017 39.7219 27.1054 41.75 22 41.75ZM22 44.5C27.8348 44.5 33.4305 42.1822 37.5564 38.0564C41.6822 33.9305 44 28.3348 44 22.5C44 16.6652 41.6822 11.0695 37.5564 6.94365C33.4305 2.81785 27.8348 0.5 22 0.5C16.1652 0.5 10.5695 2.81785 6.44365 6.94365C2.31785 11.0695 0 16.6652 0 22.5C0 28.3348 2.31785 33.9305 6.44365 38.0564C10.5695 42.1822 16.1652 44.5 22 44.5Z" fill="#FF9800"/>
<path d="M31.5664 21.7776L17.8261 13.7533C16.7097 13.1016 15 13.734 15 15.3458V31.3907C15 32.8367 16.5887 33.7081 17.8261 32.9832L31.5664 24.9627C32.7921 24.2493 32.796 22.491 31.5664 21.7776Z" fill="white"/>
</g>
<defs>
<clipPath id="clip0_110_2476">
<rect y="0.5" width="44" height="44" rx="22" fill="white"/>
</clipPath>
</defs>
</svg>
