<svg width="15" height="14" viewBox="0 0 15 14" fill="none" xmlns="http://www.w3.org/2000/svg">
<path d="M0.334961 2.95312C0.334961 2.18648 0.639508 1.45124 1.18161 0.909144C1.7237 0.367047 2.45894 0.0625 3.22559 0.0625C3.99223 0.0625 4.72747 0.367047 5.26957 0.909144C5.81166 1.45124 6.11621 2.18648 6.11621 2.95312V11.0469C6.11621 11.8135 5.81166 12.5488 5.26957 13.0909C4.72747 13.633 3.99223 13.9375 3.22559 13.9375C2.45894 13.9375 1.7237 13.633 1.18161 13.0909C0.639508 12.5488 0.334961 11.8135 0.334961 11.0469V2.95312ZM8.42871 2.95312C8.42871 2.18648 8.73326 1.45124 9.27536 0.909144C9.81745 0.367047 10.5527 0.0625 11.3193 0.0625C12.086 0.0625 12.8212 0.367047 13.3633 0.909144C13.9054 1.45124 14.21 2.18648 14.21 2.95312V11.0469C14.21 11.8135 13.9054 12.5488 13.3633 13.0909C12.8212 13.633 12.086 13.9375 11.3193 13.9375C10.5527 13.9375 9.81745 13.633 9.27536 13.0909C8.73326 12.5488 8.42871 11.8135 8.42871 11.0469V2.95312Z" fill="white"/>
</svg>
