<svg width="26" height="25" viewBox="0 0 26 25" fill="none" xmlns="http://www.w3.org/2000/svg">
<path fill-rule="evenodd" clip-rule="evenodd" d="M0.75 3.75C0.75 1.817 2.317 0.25 4.25 0.25H21.75C23.683 0.25 25.25 1.817 25.25 3.75V21.25C25.25 23.183 23.683 24.75 21.75 24.75H4.25C2.317 24.75 0.75 23.183 0.75 21.25V3.75ZM4.25 2.25C3.42157 2.25 2.75 2.92157 2.75 3.75V21.25C2.75 22.0784 3.42157 22.75 4.25 22.75H21.75C22.5784 22.75 23.25 22.0784 23.25 21.25V3.75C23.25 2.92157 22.5784 2.25 21.75 2.25H4.25Z" fill="white"/>
<path fill-rule="evenodd" clip-rule="evenodd" d="M7 7.5C7 6.94772 7.44772 6.5 8 6.5H18C18.5523 6.5 19 6.94772 19 7.5C19 8.05229 18.5523 8.5 18 8.5H8C7.44772 8.5 7 8.05229 7 7.5Z" fill="white"/>
<path fill-rule="evenodd" clip-rule="evenodd" d="M7 12.5C7 11.9477 7.44772 11.5 8 11.5H18C18.5523 11.5 19 11.9477 19 12.5C19 13.0523 18.5523 13.5 18 13.5H8C7.44772 13.5 7 13.0523 7 12.5Z" fill="white"/>
<path fill-rule="evenodd" clip-rule="evenodd" d="M7 17.5C7 16.9477 7.44772 16.5 8 16.5H18C18.5523 16.5 19 16.9477 19 17.5C19 18.0523 18.5523 18.5 18 18.5H8C7.44772 18.5 7 18.0523 7 17.5Z" fill="white"/>
</svg>
