<svg width="16" height="19" viewBox="0 0 16 19" fill="none" xmlns="http://www.w3.org/2000/svg">
<path d="M13.2005 12.5213C14.7757 11.6118 15.5633 11.1571 15.8276 10.5635C16.0581 10.0457 16.0581 9.45434 15.8276 8.93653C15.5633 8.34287 14.7757 7.88815 13.2005 6.97872L4.80049 2.12898C3.2253 1.21954 2.43771 0.764828 1.79143 0.832754C1.22772 0.892002 0.715622 1.18766 0.382454 1.64623C0.000488281 2.17196 0.000488281 3.08139 0.000488281 4.90026V14.5997C0.000488281 16.4186 0.000488281 17.328 0.382454 17.8538C0.715622 18.3123 1.22772 18.608 1.79143 18.6672C2.43771 18.7352 3.2253 18.2805 4.80049 17.371L13.2005 12.5213Z" fill="white"/>
</svg>
