<svg width="17" height="18" viewBox="0 0 17 18" fill="none" xmlns="http://www.w3.org/2000/svg">
<path d="M13.7 11.7713C15.2752 10.8618 16.0628 10.4071 16.3271 9.81347C16.5576 9.29566 16.5576 8.70434 16.3271 8.18653C16.0628 7.59287 15.2752 7.13815 13.7 6.22872L5.3 1.37898C3.72481 0.469543 2.93722 0.0148277 2.29094 0.0827541C1.72723 0.142002 1.21513 0.437662 0.881966 0.896227C0.5 1.42196 0.5 2.33139 0.5 4.15026V13.8497C0.5 15.6686 0.5 16.578 0.881966 17.1038C1.21513 17.5623 1.72723 17.858 2.29094 17.9172C2.93722 17.9852 3.72482 17.5305 5.3 16.621L13.7 11.7713Z" fill="#FF9800"/>
</svg>
