<svg width="20" height="20" viewBox="0 0 20 20" fill="none" xmlns="http://www.w3.org/2000/svg">
<path fill-rule="evenodd" clip-rule="evenodd" d="M13.2002 3.5002C13.2002 1.67766 14.6777 0.200195 16.5002 0.200195C18.3227 0.200195 19.8002 1.67766 19.8002 3.5002C19.8002 5.32273 18.3227 6.8002 16.5002 6.8002C15.5813 6.8002 14.7502 6.42464 14.1518 5.81864L6.76439 9.51236C6.78798 9.67155 6.8002 9.83445 6.8002 10.0002C6.8002 10.1659 6.78798 10.3288 6.76439 10.488L14.1518 14.1817C14.7502 13.5758 15.5813 13.2002 16.5002 13.2002C18.3227 13.2002 19.8002 14.6777 19.8002 16.5002C19.8002 18.3227 18.3227 19.8002 16.5002 19.8002C14.6777 19.8002 13.2002 18.3227 13.2002 16.5002C13.2002 16.1744 13.2474 15.8596 13.3354 15.5624L6.14877 11.9691C5.54724 12.7769 4.58483 13.3002 3.5002 13.3002C1.67766 13.3002 0.200195 11.8227 0.200195 10.0002C0.200195 8.17766 1.67766 6.7002 3.5002 6.7002C4.58482 6.7002 5.54724 7.22346 6.14876 8.03132L13.3354 4.43802C13.2474 4.14075 13.2002 3.82599 13.2002 3.5002Z" fill="#FF9800"/>
</svg>
