<svg width="33" height="33" viewBox="0 0 33 33" fill="none" xmlns="http://www.w3.org/2000/svg">
<path d="M12.737 22.0754L13.7193 20.3054C13.955 19.8812 13.8372 19.3326 13.4573 19.0693C13.0841 18.806 12.5864 18.9377 12.3506 19.3619L11.3683 21.1319C9.58712 24.3428 7.04627 26.186 4.38755 26.186H0.798927C0.353623 26.186 0 26.5883 0 27.0856C0 27.583 0.360172 27.9853 0.798927 27.9853H4.3941C7.62255 27.9707 10.6611 25.8203 12.737 22.0754Z" fill="#FF9800"/>
<path d="M31.8515 4.84376L27.9616 0.491826C27.6473 0.140746 27.1431 0.140746 26.8287 0.491826C26.5144 0.842906 26.5144 1.4061 26.8287 1.75718L29.3565 4.58045C29.3499 4.58045 29.3499 4.58045 29.3434 4.58045H25.6303C22.4084 4.58045 19.3634 6.73082 17.2875 10.4757L16.685 11.5655C16.4492 11.9897 16.5671 12.5383 16.9469 12.8016C17.0779 12.8894 17.222 12.9332 17.366 12.9332C17.6345 12.9332 17.8965 12.7796 18.0471 12.509L18.6496 11.4192C20.4308 8.20828 22.9716 6.37242 25.6303 6.37242H29.3368C29.3434 6.37242 29.3434 6.37242 29.3499 6.37242L26.8222 9.19569C26.5079 9.54677 26.5079 10.11 26.8222 10.461C26.9794 10.6366 27.1824 10.7244 27.3919 10.7244C27.6015 10.7244 27.8045 10.6366 27.9616 10.461L31.858 6.10911C32.1658 5.75803 32.1658 5.18753 31.8515 4.84376ZM30.1423 5.48741C30.1423 5.48009 30.1423 5.48009 30.1423 5.47278C30.1423 5.46546 30.1423 5.46546 30.1423 5.45815L30.1554 5.47278L30.1423 5.48741Z" fill="#FF9800"/>
<path d="M26.823 32.0614C26.9802 32.2369 27.1832 32.3247 27.3927 32.3247C27.6023 32.3247 27.8053 32.2369 27.9624 32.0614L31.8588 27.7094C32.1732 27.3584 32.1732 26.7952 31.8588 26.4441L27.9624 22.0995C27.6481 21.7484 27.1439 21.7484 26.8295 22.0995C26.5152 22.4506 26.5152 23.0138 26.8295 23.3648L29.3573 26.1881C29.3507 26.1881 29.3507 26.1881 29.3442 26.1881H25.749C23.0968 26.1881 20.5494 24.3449 18.7682 21.134L12.8614 10.4773C10.7855 6.72508 7.74042 4.58203 4.51852 4.58203H0.798927C0.353623 4.58203 0 4.98431 0 5.48167C0 5.97904 0.360172 6.38132 0.798927 6.38132H4.51197C7.16415 6.38132 9.71154 8.22449 11.4928 11.4281L17.3996 22.0849C19.4755 25.837 22.5206 27.9874 25.7425 27.9874H29.3376C29.3442 27.9874 29.3442 27.9874 29.3507 27.9874L26.823 30.8107C26.5152 31.1471 26.5152 31.7103 26.823 32.0614ZM30.1431 27.0658L30.1562 27.0804L30.1431 27.0951C30.1431 27.0877 30.1431 27.0877 30.1431 27.0804C30.1431 27.0731 30.1431 27.0731 30.1431 27.0658Z" fill="#FF9800"/>
</svg>
