<svg width="14" height="15" viewBox="0 0 14 15" fill="none" xmlns="http://www.w3.org/2000/svg">
<g clip-path="url(#clip0_69_3565)">
<path fill-rule="evenodd" clip-rule="evenodd" d="M6.39553 0.72168C6.77615 0.72168 7.12377 0.937752 7.29224 1.27906L9.03208 4.80378L12.923 5.3725C13.2995 5.42754 13.6122 5.69154 13.7296 6.05355C13.847 6.41556 13.7487 6.81281 13.4761 7.07834L10.6615 9.81977L11.3257 13.6927C11.3901 14.0679 11.2358 14.4471 10.9278 14.6708C10.6199 14.8946 10.2116 14.924 9.87466 14.7469L6.39553 12.9172L2.91641 14.7469C2.57949 14.924 2.1712 14.8946 1.86322 14.6708C1.55524 14.4471 1.401 14.0679 1.46535 13.6927L2.12961 9.81977L-0.685008 7.07834C-0.957627 6.81281 -1.0559 6.41556 -0.938522 6.05355C-0.821144 5.69154 -0.508464 5.42754 -0.131904 5.3725L3.75898 4.80378L5.49883 1.27906C5.6673 0.937752 6.01491 0.72168 6.39553 0.72168ZM6.39553 3.98093L5.31995 6.15994C5.17441 6.45479 4.89323 6.65925 4.56787 6.7068L2.16114 7.05858L3.90186 8.75405C4.13773 8.98379 4.2454 9.31492 4.18974 9.63945L3.77914 12.0335L5.93008 10.9023C6.22146 10.7491 6.5696 10.7491 6.86098 10.9023L9.01193 12.0335L8.60133 9.63945C8.54567 9.31492 8.65333 8.98379 8.8892 8.75405L10.6299 7.05858L8.22319 6.7068C7.89784 6.65925 7.61665 6.45479 7.47111 6.15994L6.39553 3.98093Z" fill="white"/>
</g>
<defs>
<clipPath id="clip0_69_3565">
<rect width="14" height="14" fill="white" transform="translate(0 0.5)"/>
</clipPath>
</defs>
</svg>
