<svg width="14" height="17" viewBox="0 0 14 17" fill="none" xmlns="http://www.w3.org/2000/svg">
<path fill-rule="evenodd" clip-rule="evenodd" d="M6.99984 2.66675C4.33046 2.66675 2.1665 4.8307 2.1665 7.50008C2.1665 9.8617 3.86026 11.8277 6.09927 12.2497L6.08211 11.9064C4.03693 11.4827 2.49984 9.67088 2.49984 7.50008C2.49984 5.0148 4.51456 3.00008 6.99984 3.00008C9.48512 3.00008 11.4998 5.0148 11.4998 7.50008C11.4998 9.67126 9.9622 11.4833 7.91648 11.9067L7.89932 12.2499C10.1389 11.8284 11.8332 9.86209 11.8332 7.50008C11.8332 4.8307 9.66921 2.66675 6.99984 2.66675ZM7.90652 9.83059C8.83901 9.46754 9.49984 8.56099 9.49984 7.50008C9.49984 6.11937 8.38055 5.00008 6.99984 5.00008C5.61913 5.00008 4.49984 6.11937 4.49984 7.50008C4.49984 8.56064 5.16024 9.46696 6.09224 9.83024C6.25022 9.48892 6.59572 9.25022 6.9993 9.25022C7.40302 9.25022 7.74862 9.48909 7.90652 9.83059ZM0.166504 7.50008C0.166504 11.0038 2.80353 13.8917 6.20115 14.2872L6.26434 15.5511C6.28393 15.9427 6.60717 16.2502 6.9993 16.2502C7.39143 16.2502 7.71467 15.9427 7.73426 15.5511L7.79744 14.2874C11.1956 13.8923 13.8332 11.0042 13.8332 7.50008C13.8332 3.72614 10.7738 0.666748 6.99984 0.666748C3.22589 0.666748 0.166504 3.72614 0.166504 7.50008Z" fill="white"/>
</svg>
