<svg width="40" height="41" viewBox="0 0 40 41" fill="none" xmlns="http://www.w3.org/2000/svg">
<path d="M26.6665 35.5V32.1667C26.6665 30.3986 25.9641 28.7029 24.7139 27.4526C23.4636 26.2024 21.7679 25.5 19.9998 25.5H8.33317C6.56506 25.5 4.86937 26.2024 3.61913 27.4526C2.36888 28.7029 1.6665 30.3986 1.6665 32.1667V35.5" stroke="white" stroke-width="2" stroke-linecap="round" stroke-linejoin="round"/>
<path d="M14.1667 18.8333C17.8486 18.8333 20.8333 15.8486 20.8333 12.1667C20.8333 8.48477 17.8486 5.5 14.1667 5.5C10.4848 5.5 7.5 8.48477 7.5 12.1667C7.5 15.8486 10.4848 18.8333 14.1667 18.8333Z" stroke="white" stroke-width="2" stroke-linecap="round" stroke-linejoin="round"/>
<path d="M33.3335 13.8335V23.8335" stroke="white" stroke-width="2" stroke-linecap="round" stroke-linejoin="round"/>
<path d="M38.3335 18.8335H28.3335" stroke="white" stroke-width="2" stroke-linecap="round" stroke-linejoin="round"/>
</svg>
