<svg width="14" height="15" viewBox="0 0 14 15" fill="none" xmlns="http://www.w3.org/2000/svg">
<g clip-path="url(#clip0_69_5137)">
<path d="M9.91683 12.75V11.5833C9.91683 10.9645 9.671 10.371 9.23341 9.93342C8.79583 9.49583 8.20233 9.25 7.5835 9.25H2.91683C2.29799 9.25 1.7045 9.49583 1.26691 9.93342C0.829329 10.371 0.583496 10.9645 0.583496 11.5833V12.75" stroke="white" stroke-width="2" stroke-linecap="round" stroke-linejoin="round"/>
<path d="M5.24984 6.91667C6.5385 6.91667 7.58317 5.872 7.58317 4.58333C7.58317 3.29467 6.5385 2.25 5.24984 2.25C3.96117 2.25 2.9165 3.29467 2.9165 4.58333C2.9165 5.872 3.96117 6.91667 5.24984 6.91667Z" stroke="white" stroke-width="2" stroke-linecap="round" stroke-linejoin="round"/>
<path d="M13.4165 12.7501V11.5834C13.4161 11.0664 13.244 10.5642 12.9273 10.1556C12.6106 9.74701 12.1671 9.45518 11.6665 9.32593" stroke="white" stroke-width="2" stroke-linecap="round" stroke-linejoin="round"/>
<path d="M9.3335 2.32593C9.8354 2.45444 10.2803 2.74634 10.598 3.15561C10.9156 3.56488 11.0881 4.06825 11.0881 4.58634C11.0881 5.10444 10.9156 5.60781 10.598 6.01708C10.2803 6.42635 9.8354 6.71825 9.3335 6.84676" stroke="white" stroke-width="2" stroke-linecap="round" stroke-linejoin="round"/>
</g>
<defs>
<clipPath id="clip0_69_5137">
<rect width="14" height="14" fill="white" transform="translate(0 0.5)"/>
</clipPath>
</defs>
</svg>
