<svg width="28" height="23" viewBox="0 0 28 23" fill="none" xmlns="http://www.w3.org/2000/svg">
<path fill-rule="evenodd" clip-rule="evenodd" d="M14.0203 0.93922L7.47372 6.5506C7.4269 6.59073 7.36726 6.61279 7.3056 6.61279H2.61675C1.33269 6.61279 0.291748 7.65373 0.291748 8.93779V15.3961C0.291748 16.6802 1.33269 17.7211 2.61675 17.7211H7.36948C7.42332 17.7211 7.47582 17.7379 7.51963 17.7692L14.182 22.5281C15.7209 23.6273 17.8584 22.5273 17.8584 20.6362V2.70449C17.8584 0.718121 15.5285 -0.353493 14.0203 0.93922ZM15.0291 2.11607C15.5318 1.68516 16.3084 2.04237 16.3084 2.70449V20.6362C16.3084 21.2665 15.5959 21.6332 15.083 21.2668L8.42055 16.508C8.11386 16.2889 7.74637 16.1711 7.36948 16.1711H2.61675C2.18873 16.1711 1.84175 15.8241 1.84175 15.3961V8.93779C1.84175 8.50977 2.18873 8.16279 2.61675 8.16279H7.3056C7.73727 8.16279 8.1547 8.00837 8.48244 7.72745L15.0291 2.11607Z" fill="white"/>
<path d="M25.6215 3.03616C26.0276 2.9008 26.4665 3.12025 26.6018 3.52631C27.4958 6.20818 28.7387 13.1059 26.6018 19.5165C26.4665 19.9225 26.0276 20.142 25.6215 20.0066C25.2154 19.8713 24.996 19.4324 25.1314 19.0263C27.1278 13.0368 25.9596 6.50126 25.1314 4.01646C24.996 3.61041 25.2154 3.17151 25.6215 3.03616Z" fill="white"/>
<path d="M21.7465 6.91116C22.1526 6.7758 22.5915 6.99525 22.7268 7.40131C23.1902 8.79151 23.8303 12.3309 22.7268 15.6415C22.5915 16.0475 22.1526 16.267 21.7465 16.1316C21.3404 15.9963 21.121 15.5574 21.2564 15.1513C22.2195 12.2618 21.6541 9.08459 21.2564 7.89146C21.121 7.48541 21.3404 7.04651 21.7465 6.91116Z" fill="white"/>
</svg>
