<svg width="14" height="14" viewBox="0 0 14 14" fill="none" xmlns="http://www.w3.org/2000/svg">
<path fill-rule="evenodd" clip-rule="evenodd" d="M0.832466 0.832466C1.10909 0.555845 1.55758 0.555845 1.8342 0.832466L7 5.99827L12.1658 0.832466C12.4424 0.555845 12.8909 0.555845 13.1675 0.832466C13.4442 1.10909 13.4442 1.55758 13.1675 1.8342L8.00173 7L13.1675 12.1658C13.4442 12.4424 13.4442 12.8909 13.1675 13.1675C12.8909 13.4442 12.4424 13.4442 12.1658 13.1675L7 8.00173L1.8342 13.1675C1.55758 13.4442 1.10909 13.4442 0.832466 13.1675C0.555845 12.8909 0.555845 12.4424 0.832466 12.1658L5.99827 7L0.832466 1.8342C0.555845 1.55758 0.555845 1.10909 0.832466 0.832466Z" fill="white"/>
</svg>
