<svg width="23" height="28" viewBox="0 0 23 28" fill="none" xmlns="http://www.w3.org/2000/svg">
<path fill-rule="evenodd" clip-rule="evenodd" d="M15.8198 0.739103C14.6967 0.965195 13.6813 1.54434 12.7165 2.50912C11.7397 3.48594 11.1421 4.54578 10.8637 5.79487C10.779 6.17487 10.7756 7.35386 10.8586 7.55389C10.8913 7.6327 10.9004 7.69722 10.8788 7.69722C10.8572 7.69722 10.4355 7.55691 9.94162 7.38544C8.76368 6.97641 8.12595 6.84403 7.50682 6.87999C6.28322 6.95119 4.85813 7.44908 3.78619 8.17984C3.24895 8.54608 2.40926 9.39724 2.0463 9.94355C1.24653 11.1471 0.827806 12.4797 0.692765 14.2512C0.521554 16.4962 1.19337 19.3871 2.53632 22.1846C3.68686 24.5811 5.08135 26.2745 6.46428 26.9543C7.59709 27.5112 8.49203 27.465 10.5037 26.7456C11.5956 26.3551 11.9265 26.2805 12.3795 26.3228C12.8763 26.3692 13.2451 26.4782 14.0679 26.8218C14.4725 26.9907 14.9442 27.1664 15.1162 27.2122C15.6113 27.3442 16.3523 27.371 16.8101 27.2734C18.5027 26.9127 20.1446 25.1812 21.6341 22.1863C22.1234 21.2026 22.5432 20.1826 22.5432 19.9776C22.5432 19.6223 22.2916 19.3218 21.6877 18.9556C20.7157 18.3663 20.0892 17.7368 19.69 16.9484C19.2487 16.077 19.104 14.7039 19.3465 13.6909C19.4414 13.2945 19.7501 12.6065 19.9937 12.2486C20.2426 11.8831 20.8378 11.2792 21.3276 10.8951C22.0221 10.3507 22.071 10.0398 21.5695 9.3569C20.6772 8.14206 19.2161 7.25984 17.5574 6.9344C17.0621 6.8372 15.7506 6.80468 15.2638 6.87759L14.9945 6.91788L15.3783 6.5458C15.8574 6.08121 16.335 5.41549 16.6275 4.80461C17.0891 3.84061 17.272 3.09009 17.3132 1.99017C17.3418 1.22907 17.3393 1.20354 17.2186 1.02597C16.9767 0.66994 16.5739 0.587332 15.8198 0.739103ZM15.7156 2.50469C15.7156 2.57265 15.6591 2.85108 15.59 3.12329C15.2682 4.39187 14.4217 5.54465 13.4199 6.07861C13.1069 6.24544 12.577 6.44636 12.45 6.44636C12.2795 6.44636 12.4426 5.74114 12.7693 5.0652C13.1377 4.30317 13.7543 3.56141 14.4387 3.05705C14.7409 2.83435 15.5636 2.38106 15.6656 2.38106C15.6931 2.38106 15.7156 2.43668 15.7156 2.50469ZM17.6179 8.55255C18.4628 8.77145 19.3531 9.25277 19.8255 9.74602L20.0004 9.92865L19.5128 10.4174C18.255 11.6781 17.6757 13.0565 17.677 14.7854C17.6782 16.4804 18.1659 17.8117 19.2108 18.9726C19.5048 19.2992 20.1464 19.8373 20.5332 20.0817C20.664 20.1643 20.771 20.2599 20.771 20.2942C20.7711 20.3285 20.6423 20.6382 20.4847 20.9825C19.3237 23.5199 17.9178 25.2612 16.6867 25.6867C16.1555 25.8703 15.5327 25.7696 14.5764 25.3454C13.804 25.0029 13.2989 24.8563 12.6376 24.7827C11.8347 24.6934 11.3516 24.7812 10.0137 25.2596C8.18359 25.9138 7.6501 25.924 6.76303 25.3216C6.38585 25.0655 5.61797 24.2625 5.23182 23.7203C4.12836 22.1712 3.16181 20.0148 2.63082 17.9174C2.32967 16.7276 2.248 16.1019 2.2493 14.9939C2.25108 13.488 2.44293 12.5525 2.97074 11.4759C3.51413 10.3673 4.27721 9.61218 5.42206 9.04992C6.27134 8.63281 6.91027 8.46566 7.66318 8.46368C8.29914 8.46196 8.42105 8.49303 10.0437 9.06983C10.493 9.22957 11.0559 9.39985 11.2945 9.44816C11.9125 9.5734 12.2451 9.50914 13.596 9.00348C15.0429 8.46186 15.4722 8.36867 16.3931 8.39635C16.9293 8.4125 17.2208 8.44966 17.6179 8.55255Z" fill="white" stroke="white" stroke-width="0.2"/>
</svg>
