<svg width="15" height="12" viewBox="0 0 15 12" fill="none" xmlns="http://www.w3.org/2000/svg">
<path fill-rule="evenodd" clip-rule="evenodd" d="M10.7692 6C10.7692 4.85089 10.6714 3.31199 10.5904 2.23778C10.5565 1.78839 10.2104 1.43323 9.76685 1.39086C8.68254 1.28726 7.12159 1.16129 5.96154 1.16129C4.80149 1.16129 3.24054 1.28726 2.15623 1.39086C1.71272 1.43323 1.36655 1.78839 1.33268 2.23778C1.2517 3.31199 1.15385 4.85089 1.15385 6C1.15385 7.14911 1.2517 8.68801 1.33268 9.76222C1.36655 10.2116 1.71272 10.5668 2.15623 10.6091C3.24054 10.7127 4.80149 10.8387 5.96154 10.8387C7.12159 10.8387 8.68254 10.7127 9.76684 10.6091C10.2104 10.5668 10.5565 10.2116 10.5904 9.76222C10.6714 8.68801 10.7692 7.14911 10.7692 6ZM11.7409 2.14992C11.8221 3.22645 11.9231 4.8033 11.9231 6C11.9231 7.1967 11.8221 8.77355 11.7409 9.85008C11.6647 10.8609 10.8809 11.6692 9.87589 11.7652C8.78901 11.8691 7.18082 12 5.96154 12C4.74226 12 3.13406 11.8691 2.04719 11.7652C1.04215 11.6692 0.258341 10.8609 0.182136 9.85008C0.100982 8.77355 -5.1974e-08 7.1967 0 6C5.19742e-08 4.8033 0.100982 3.22645 0.182137 2.14992C0.258341 1.13905 1.04215 0.330787 2.04719 0.234765C3.13406 0.130923 4.74226 -5.36404e-08 5.96154 0C7.18082 5.36404e-08 8.78901 0.130923 9.87589 0.234765C10.8809 0.330788 11.6647 1.13905 11.7409 2.14992Z" fill="white"/>
<path fill-rule="evenodd" clip-rule="evenodd" d="M14.7264 2.4093C14.8965 2.5151 15 2.70199 15 2.90323L15 9.09677C15 9.29801 14.8965 9.4849 14.7264 9.5907C14.5563 9.6965 14.3439 9.70612 14.1651 9.61612L11.0881 8.06773C10.8927 7.96938 10.7692 7.76832 10.7692 7.54839V4.45161C10.7692 4.23168 10.8927 4.03062 11.0881 3.93227L14.1651 2.38388C14.3439 2.29388 14.5563 2.3035 14.7264 2.4093ZM11.9231 4.81047V7.18953L13.8462 8.15727L13.8462 3.84273L11.9231 4.81047Z" fill="white"/>
</svg>
