<svg width="20" height="20" viewBox="0 0 20 20" fill="none" xmlns="http://www.w3.org/2000/svg">
<path fill-rule="evenodd" clip-rule="evenodd" d="M10 1.53846C5.32682 1.53846 1.53846 5.32682 1.53846 10C1.53846 11.4 1.87786 12.7185 2.4782 13.8798C2.53465 13.989 2.5641 14.1101 2.5641 14.233V17.4359H5.76697C5.88989 17.4359 6.01102 17.4654 6.12022 17.5218C7.28153 18.1221 8.60001 18.4615 10 18.4615C14.6732 18.4615 18.4615 14.6732 18.4615 10C18.4615 5.32682 14.6732 1.53846 10 1.53846ZM0 10C0 4.47715 4.47715 0 10 0C15.5228 0 20 4.47715 20 10C20 15.5228 15.5228 20 10 20C8.41621 20 6.91649 19.6313 5.58388 18.9744H1.79487C1.37004 18.9744 1.02564 18.63 1.02564 18.2051V14.4161C0.368739 13.0835 0 11.5838 0 10Z" fill="white"/>
<path d="M7.94872 10C7.94872 10.5664 7.48952 11.0256 6.92308 11.0256C6.35663 11.0256 5.89744 10.5664 5.89744 10C5.89744 9.43355 6.35663 8.97436 6.92308 8.97436C7.48952 8.97436 7.94872 9.43355 7.94872 10Z" fill="white"/>
<path d="M11.0256 10C11.0256 10.5664 10.5664 11.0256 10 11.0256C9.43355 11.0256 8.97436 10.5664 8.97436 10C8.97436 9.43355 9.43355 8.97436 10 8.97436C10.5664 8.97436 11.0256 9.43355 11.0256 10Z" fill="white"/>
<path d="M14.1026 10C14.1026 10.5664 13.6434 11.0256 13.0769 11.0256C12.5105 11.0256 12.0513 10.5664 12.0513 10C12.0513 9.43355 12.5105 8.97436 13.0769 8.97436C13.6434 8.97436 14.1026 9.43355 14.1026 10Z" fill="white"/>
</svg>
