<svg width="20" height="20" viewBox="0 0 20 20" fill="none" xmlns="http://www.w3.org/2000/svg">
<path fill-rule="evenodd" clip-rule="evenodd" d="M0 10C0 4.47715 4.47715 0 10 0C15.5228 0 20 4.47715 20 10C20 15.5228 15.5228 20 10 20C8.41621 20 6.91649 19.6313 5.58388 18.9744H1.79487C1.37004 18.9744 1.02564 18.63 1.02564 18.2051V14.4161C0.368739 13.0835 0 11.5838 0 10ZM10 11.0256C10.5664 11.0256 11.0256 10.5664 11.0256 10C11.0256 9.43356 10.5664 8.97436 10 8.97436C9.43356 8.97436 8.97436 9.43356 8.97436 10C8.97436 10.5664 9.43356 11.0256 10 11.0256ZM14.1026 10C14.1026 10.5664 13.6434 11.0256 13.0769 11.0256C12.5105 11.0256 12.0513 10.5664 12.0513 10C12.0513 9.43356 12.5105 8.97436 13.0769 8.97436C13.6434 8.97436 14.1026 9.43356 14.1026 10ZM6.92308 11.0256C7.48952 11.0256 7.94872 10.5664 7.94872 10C7.94872 9.43356 7.48952 8.97436 6.92308 8.97436C6.35663 8.97436 5.89744 9.43356 5.89744 10C5.89744 10.5664 6.35663 11.0256 6.92308 11.0256Z" fill="white"/>
</svg>
