<svg width="13" height="22" viewBox="0 0 13 22" fill="none" xmlns="http://www.w3.org/2000/svg">
<path fill-rule="evenodd" clip-rule="evenodd" d="M8.02013 1.02338C7.75438 1.05979 7.13563 1.22941 6.84481 1.34556C5.33805 1.9475 4.3573 3.1512 3.96562 4.87937C3.89612 5.18614 3.88056 5.42267 3.85979 6.49044L3.83543 7.74194L2.74037 7.76149C1.81543 7.77799 1.62677 7.79121 1.52594 7.84647C1.34334 7.94659 1.08901 8.24422 1.04228 8.41247C1.01545 8.50914 1.00035 9.18835 1.00023 10.3057L1 12.0481L1.10129 12.2514C1.15702 12.3633 1.267 12.508 1.34573 12.5731C1.59646 12.7805 1.76619 12.8066 2.86481 12.8066H3.85498V16.5428C3.85498 20.6644 3.84102 20.4287 4.10141 20.7003C4.1702 20.7721 4.29692 20.8689 4.38296 20.9154C4.53713 20.9988 4.56669 21 6.41664 21C8.27367 21 8.29561 20.9991 8.45404 20.9143C8.64048 20.8145 8.84784 20.5913 8.92453 20.4077C8.96888 20.3015 8.9783 19.6247 8.9783 16.5452V12.8114L10.2591 12.7992C11.4825 12.7876 11.547 12.7833 11.6969 12.703C11.8964 12.5961 12.053 12.4395 12.1599 12.24C12.2415 12.0876 12.2443 12.0349 12.2565 10.4014C12.2651 9.255 12.255 8.65522 12.225 8.51724C12.1683 8.25642 12.0023 8.02982 11.7665 7.89122L11.5791 7.78104L10.2885 7.76149L8.99786 7.74194L8.99978 6.99886C9.00083 6.59017 9.01487 6.18965 9.03095 6.10881C9.0855 5.83465 9.11483 5.82832 10.443 5.80462C11.4502 5.78662 11.6406 5.7738 11.7746 5.71462C11.9705 5.62823 12.1668 5.44227 12.2767 5.23894C12.3597 5.08543 12.3613 5.05078 12.3613 3.38124C12.3613 1.7006 12.3602 1.67803 12.2748 1.51831C12.166 1.31502 11.9957 1.14321 11.8203 1.05999C11.6999 1.00281 11.4849 0.99624 9.91102 1.00144C8.93556 1.00465 8.08466 1.01454 8.02013 1.02338ZM11.1983 3.37147L11.188 4.61319L10.132 4.63599C9.29724 4.65398 9.03388 4.67252 8.87463 4.72434C8.44255 4.86497 8.07519 5.2206 7.94472 5.6246C7.84089 5.94611 7.79783 6.5658 7.81167 7.53884C7.8254 8.50116 7.83928 8.57743 8.03307 8.75279C8.21473 8.91721 8.34857 8.93125 9.75071 8.93305L11.0902 8.93477V10.284V11.6333H9.69737C8.36495 11.6333 8.29835 11.6368 8.16166 11.7136C8.08309 11.7578 7.97507 11.8577 7.92169 11.9356L7.82458 12.0773L7.8139 15.9618L7.80319 19.8463H6.41664H5.0301L5.01938 15.9618L5.00871 12.0773L4.9116 11.9356C4.85821 11.8577 4.75019 11.7578 4.67162 11.7136C4.5363 11.6376 4.46646 11.6333 3.35102 11.6333H2.17328V10.284V8.93477L3.29767 8.93305C4.47213 8.93125 4.62301 8.91314 4.80022 8.75279C5.00519 8.5673 5.00663 8.55564 5.03256 6.88153C5.05611 5.36209 5.05967 5.30648 5.1574 4.94562C5.32283 4.33481 5.50809 3.94383 5.83853 3.50815C6.32822 2.86242 7.10043 2.403 7.98598 2.23053C8.43324 2.14343 8.4454 2.14285 9.88814 2.136L11.2086 2.12975L11.1983 3.37147Z" fill="white" stroke="white" stroke-width="0.2"/>
</svg>
