<svg width="10" height="16" viewBox="0 0 10 16" fill="none" xmlns="http://www.w3.org/2000/svg">
<path fill-rule="evenodd" clip-rule="evenodd" d="M5.76509 0.517536C5.56578 0.544845 5.10172 0.672057 4.88361 0.759173C3.75354 1.21062 3.01798 2.1134 2.72422 3.40953C2.67209 3.63961 2.66042 3.81701 2.64484 4.61783L2.62657 5.55645L1.80527 5.57112C1.11157 5.5835 0.970075 5.59341 0.894457 5.63486C0.757506 5.70995 0.56676 5.93316 0.531708 6.05935C0.511586 6.13186 0.500264 6.64127 0.500176 7.47928L0.5 8.78611L0.57597 8.93858C0.617768 9.02244 0.700249 9.131 0.759295 9.17983C0.947342 9.33538 1.07464 9.35495 1.89861 9.35495H2.64124L2.64124 12.1571C2.64124 15.2483 2.63076 15.0715 2.82606 15.2753C2.87765 15.3291 2.97269 15.4017 3.03722 15.4366C3.15284 15.4991 3.17502 15.5 4.56248 15.5C5.95525 15.5 5.97171 15.4993 6.09053 15.4357C6.23036 15.3609 6.38588 15.1935 6.4434 15.0558C6.47666 14.9762 6.48373 14.4685 6.48373 12.1589V9.35858L7.44435 9.34943C8.36189 9.34069 8.41025 9.33746 8.52268 9.27725C8.67231 9.19711 8.78978 9.07964 8.86992 8.93001C8.93113 8.81568 8.93322 8.77617 8.94237 7.55103C8.94882 6.69125 8.94128 6.24141 8.91875 6.13793C8.87619 5.94231 8.75171 5.77236 8.57487 5.66841L8.43431 5.58578L7.46635 5.57112L6.49839 5.55645L6.49983 4.99914C6.50062 4.69262 6.51115 4.39224 6.52321 4.33161C6.56413 4.12599 6.58613 4.12124 7.58227 4.10346C8.33763 4.08997 8.48042 4.08035 8.58097 4.03597C8.72789 3.97117 8.87508 3.8317 8.95753 3.6792C9.01977 3.56408 9.02095 3.53809 9.02095 2.28593C9.02095 1.02545 9.02015 1.00852 8.95609 0.888733C8.87452 0.736265 8.74678 0.60741 8.61526 0.544991C8.52491 0.502108 8.36368 0.49718 7.18327 0.501081C6.45167 0.503486 5.81349 0.510907 5.76509 0.517536ZM8.14873 2.2786L8.14099 3.20989L7.34902 3.22699C6.72293 3.24048 6.52541 3.25439 6.40597 3.29325C6.08191 3.39873 5.80639 3.66545 5.70854 3.96845C5.63067 4.20958 5.59837 4.67435 5.60876 5.40413C5.61905 6.12587 5.62946 6.18307 5.7748 6.3146C5.91105 6.43791 6.01142 6.44844 7.06304 6.44979L8.06766 6.45108V7.46303V8.47499H7.02303C6.02371 8.47499 5.97376 8.4776 5.87125 8.5352C5.81232 8.56835 5.7313 8.64326 5.69127 8.70172L5.61843 8.80799L5.61043 11.7213L5.60239 14.6347H4.56248H3.52257L3.51454 11.7213L3.50653 8.80799L3.4337 8.70172C3.39366 8.64326 3.31265 8.56835 3.25372 8.5352C3.15223 8.47818 3.09984 8.47499 2.26326 8.47499H1.37996V7.46303L1.37996 6.45108L2.22326 6.44979C3.1041 6.44844 3.21726 6.43486 3.35016 6.3146C3.50389 6.17547 3.50498 6.16673 3.52442 4.91115C3.54208 3.77157 3.54475 3.72986 3.61805 3.45921C3.74213 3.00111 3.88107 2.70787 4.1289 2.38112C4.49616 1.89682 5.07532 1.55225 5.73949 1.4229C6.07493 1.35758 6.08405 1.35714 7.16611 1.352L8.15647 1.34731L8.14873 2.2786Z" fill="#212129" stroke="#212129" stroke-width="0.2"/>
</svg>
