<svg width="16" height="16" viewBox="0 0 16 16" fill="none" xmlns="http://www.w3.org/2000/svg">
<path d="M14.4158 6.95978L14.3477 6.67079L8.0666 6.67079V9.32921L11.8195 9.32921C11.4298 11.1794 9.62181 12.1534 8.14494 12.1534C7.07037 12.1534 5.93763 11.7014 5.1879 10.9748C4.79234 10.5854 4.47748 10.1217 4.26134 9.61045C4.0452 9.09916 3.93203 8.55026 3.9283 7.99518C3.9283 6.8754 4.43154 5.75532 5.16379 5.01855C5.89605 4.28177 7.00196 3.86954 8.10155 3.86954C9.36085 3.86954 10.2634 4.53821 10.6009 4.84317L12.49 2.96402C11.9358 2.47705 10.4134 1.25 8.04068 1.25C6.21004 1.25 4.45474 1.95122 3.17164 3.2301C1.90541 4.4894 1.25 6.31039 1.25 8C1.25 9.68961 1.87016 11.4196 3.09721 12.6888C4.40834 14.0425 6.26519 14.75 8.17719 14.75C9.91682 14.75 11.5657 14.0684 12.741 12.8317C13.8963 11.6143 14.4939 9.92978 14.4939 8.16393C14.4939 7.42052 14.4191 6.97906 14.4158 6.95978Z" stroke="#212129" stroke-width="1.2"/>
</svg>
