<svg width="20" height="20" viewBox="0 0 20 20" fill="none" xmlns="http://www.w3.org/2000/svg">
<path d="M18.5544 8.61304L18.4636 8.22772H10.0888V11.7723H15.0926C14.5731 14.2392 12.1624 15.5378 10.1933 15.5378C8.76049 15.5378 7.25018 14.9351 6.25054 13.9664C5.72312 13.4472 5.30331 12.829 5.01512 12.1473C4.72694 11.4655 4.57604 10.7337 4.57107 9.99357C4.57107 8.50054 5.24205 7.0071 6.21839 6.02473C7.19473 5.04237 8.66929 4.49272 10.1354 4.49272C11.8145 4.49272 13.0178 5.38429 13.4678 5.79089L15.9866 3.28536C15.2477 2.63607 13.2179 1 10.0542 1C7.61339 1 5.27299 1.93496 3.56219 3.64013C1.87388 5.3192 1 7.74719 1 10C1 12.2528 1.82688 14.5595 3.46295 16.2518C5.21112 18.0566 7.68692 19 10.2363 19C12.5558 19 14.7543 18.0912 16.3213 16.4422C17.8617 14.819 18.6585 12.573 18.6585 10.2186C18.6585 9.22737 18.5588 8.63875 18.5544 8.61304Z" stroke="white" stroke-width="1.6"/>
</svg>
