<svg width="20" height="20" viewBox="0 0 20 20" fill="none" xmlns="http://www.w3.org/2000/svg">
<path d="M8.42351 0.492112C9.37637 -0.164037 10.6236 -0.164037 11.5765 0.492111L18.7165 5.4088C19.4457 5.91092 19.9104 6.73645 19.9448 7.6473C19.9966 9.0177 20.0564 11.5119 19.8956 13.3291C19.7738 14.7066 19.4561 16.4785 19.2089 17.7352C18.9461 19.071 17.7924 20 16.4796 20H13.4604C12.4691 20 11.6655 19.1791 11.6655 18.1664V13.9753C11.6655 13.8306 11.5507 13.7134 11.4091 13.7134H8.89561C8.754 13.7134 8.6392 13.8306 8.6392 13.9753V18.1664C8.6392 19.1791 7.83561 20 6.84433 20H3.52037C2.20761 20 1.05389 19.071 0.791127 17.7352C0.543921 16.4785 0.226243 14.7066 0.104366 13.3291C-0.0564237 11.5119 0.0033809 9.0177 0.055155 7.6473C0.0895669 6.73645 0.554274 5.91092 1.28346 5.4088L8.42351 0.492112Z" fill="white"/>
</svg>
