<svg width="20" height="20" viewBox="0 0 20 20" fill="none" xmlns="http://www.w3.org/2000/svg">
<path fill-rule="evenodd" clip-rule="evenodd" d="M10.0009 0C7.28508 0 6.94424 0.0118751 5.87756 0.0604173C4.81297 0.109168 4.08629 0.277711 3.45045 0.525005C2.79274 0.780425 2.23482 1.12209 1.67898 1.67814C1.12272 2.23398 0.78105 2.7919 0.524797 3.44941C0.276878 4.08546 0.108126 4.81234 0.060209 5.87652C0.0125001 6.9432 0 7.28424 0 10.0001C0 12.716 0.0120835 13.0558 0.0604173 14.1224C0.109376 15.187 0.27792 15.9137 0.525005 16.5495C0.780633 17.2073 1.1223 17.7652 1.67835 18.321C2.23398 18.8773 2.7919 19.2198 3.4492 19.4752C4.08546 19.7225 4.81234 19.891 5.87673 19.9398C6.94341 19.9883 7.28403 20.0002 9.99969 20.0002C12.7158 20.0002 13.0556 19.9883 14.1222 19.9398C15.1868 19.891 15.9143 19.7225 16.5506 19.4752C17.2081 19.2198 17.7652 18.8773 18.3208 18.321C18.8771 17.7652 19.2187 17.2073 19.475 16.5498C19.7208 15.9137 19.8896 15.1868 19.9396 14.1226C19.9875 13.056 20 12.716 20 10.0001C20 7.28424 19.9875 6.94341 19.9396 5.87673C19.8896 4.81213 19.7208 4.08546 19.475 3.44962C19.2187 2.7919 18.8771 2.23398 18.3208 1.67814C17.7646 1.12189 17.2083 0.780216 16.55 0.525005C15.9125 0.277711 15.1854 0.109168 14.1208 0.0604173C13.0541 0.0118751 12.7145 0 9.99781 0H10.0009ZM9.10404 1.80208C9.3703 1.80167 9.66738 1.80208 10.0011 1.80208C12.6712 1.80208 12.9876 1.81167 14.042 1.85959C15.017 1.90417 15.5462 2.06709 15.8987 2.20396C16.3654 2.38522 16.6981 2.60188 17.0479 2.95189C17.3979 3.30189 17.6145 3.63523 17.7962 4.1019C17.9331 4.45399 18.0962 4.98316 18.1406 5.95817C18.1885 7.01235 18.1989 7.32902 18.1989 9.99779C18.1989 12.6666 18.1885 12.9832 18.1406 14.0374C18.096 15.0124 17.9331 15.5416 17.7962 15.8937C17.615 16.3604 17.3979 16.6927 17.0479 17.0425C16.6979 17.3925 16.3656 17.6091 15.8987 17.7904C15.5466 17.9279 15.017 18.0904 14.042 18.135C12.9878 18.1829 12.6712 18.1933 10.0011 18.1933C7.3309 18.1933 7.01444 18.1829 5.96026 18.135C4.98525 18.09 4.45608 17.927 4.10337 17.7902C3.6367 17.6089 3.30336 17.3922 2.95336 17.0422C2.60335 16.6922 2.38668 16.3597 2.20502 15.8929C2.06814 15.5408 1.90501 15.0116 1.86064 14.0366C1.81272 12.9824 1.80314 12.6657 1.80314 9.99529C1.80314 7.32485 1.81272 7.00985 1.86064 5.95567C1.90522 4.98066 2.06814 4.45149 2.20502 4.09898C2.38627 3.63231 2.60335 3.29898 2.95336 2.94897C3.30336 2.59897 3.6367 2.3823 4.10337 2.20063C4.45587 2.06313 4.98525 1.90063 5.96026 1.85584C6.88277 1.81417 7.24027 1.80167 9.10404 1.79958V1.80208ZM15.3391 3.46253C14.6766 3.46253 14.1391 3.99941 14.1391 4.66213C14.1391 5.32464 14.6766 5.86214 15.3391 5.86214C16.0016 5.86214 16.5391 5.32464 16.5391 4.66213C16.5391 3.99962 16.0016 3.46212 15.3391 3.46212V3.46253ZM10.0012 4.86464C7.16509 4.86464 4.86569 7.16403 4.86569 10.0001C4.86569 12.8362 7.16509 15.1345 10.0012 15.1345C12.8372 15.1345 15.1358 12.8362 15.1358 10.0001C15.1358 7.16403 12.837 4.86464 10.001 4.86464H10.0012ZM10.0011 6.66674C11.842 6.66674 13.3345 8.15905 13.3345 10.0001C13.3345 11.841 11.842 13.3335 10.0011 13.3335C8.16008 13.3335 6.66777 11.841 6.66777 10.0001C6.66777 8.15905 8.16008 6.66674 10.0011 6.66674V6.66674Z" fill="white"/>
</svg>
