<svg width="16" height="16" viewBox="0 0 16 16" fill="none" xmlns="http://www.w3.org/2000/svg">
<path fill-rule="evenodd" clip-rule="evenodd" d="M8.0007 0.5C5.96381 0.5 5.70818 0.508906 4.90817 0.545313C4.10973 0.581876 3.56472 0.708283 3.08784 0.893754C2.59455 1.08532 2.17611 1.34157 1.75923 1.75861C1.34204 2.17549 1.08579 2.59393 0.893598 3.08706C0.707658 3.56409 0.581095 4.10926 0.545157 4.90739C0.509375 5.7074 0.5 5.96318 0.5 8.00008C0.5 10.037 0.509063 10.2918 0.545313 11.0918C0.582032 11.8903 0.70844 12.4353 0.893754 12.9122C1.08547 13.4054 1.34173 13.8239 1.75876 14.2408C2.17549 14.658 2.59393 14.9148 3.0869 15.1064C3.56409 15.2919 4.10926 15.4183 4.90755 15.4548C5.70755 15.4912 5.96303 15.5002 7.99977 15.5002C10.0368 15.5002 10.2917 15.4912 11.0917 15.4548C11.8901 15.4183 12.4358 15.2919 12.9129 15.1064C13.4061 14.9148 13.8239 14.658 14.2406 14.2408C14.6578 13.8239 14.9141 13.4054 15.1062 12.9123C15.2906 12.4353 15.4172 11.8901 15.4547 11.092C15.4906 10.292 15.5 10.037 15.5 8.00008C15.5 5.96318 15.4906 5.70755 15.4547 4.90755C15.4172 4.1091 15.2906 3.56409 15.1062 3.08721C14.9141 2.59393 14.6578 2.17549 14.2406 1.75861C13.8234 1.34141 13.4062 1.08516 12.9125 0.893754C12.4343 0.708283 11.889 0.581876 11.0906 0.545313C10.2906 0.508906 10.0359 0.5 7.99836 0.5L8.0007 0.5ZM7.32803 1.85156C7.52772 1.85125 7.75054 1.85156 8.00085 1.85156C10.0034 1.85156 10.2407 1.85875 11.0315 1.89469C11.7628 1.92813 12.1596 2.05032 12.424 2.15297C12.774 2.28891 13.0236 2.45141 13.2859 2.71392C13.5484 2.97642 13.7109 3.22642 13.8472 3.57643C13.9498 3.84049 14.0722 4.23737 14.1054 4.96863C14.1414 5.75926 14.1492 5.99676 14.1492 7.99835C14.1492 9.99993 14.1414 10.2374 14.1054 11.0281C14.072 11.7593 13.9498 12.1562 13.8472 12.4203C13.7112 12.7703 13.5484 13.0195 13.2859 13.2818C13.0234 13.5443 12.7742 13.7068 12.424 13.8428C12.16 13.9459 11.7628 14.0678 11.0315 14.1012C10.2409 14.1372 10.0034 14.145 8.00085 14.145C5.99818 14.145 5.76083 14.1372 4.9702 14.1012C4.23894 14.0675 3.84206 13.9453 3.57753 13.8426C3.22752 13.7067 2.97752 13.5442 2.71502 13.2817C2.45251 13.0192 2.29001 12.7698 2.15376 12.4196C2.0511 12.1556 1.92876 11.7587 1.89548 11.0274C1.85954 10.2368 1.85235 9.9993 1.85235 7.99647C1.85235 5.99364 1.85954 5.75738 1.89548 4.96675C1.92892 4.23549 2.0511 3.83862 2.15376 3.57424C2.2897 3.22423 2.45251 2.97423 2.71502 2.71173C2.97752 2.44923 3.22752 2.28672 3.57753 2.15047C3.8419 2.04735 4.23894 1.92547 4.9702 1.89188C5.66208 1.86063 5.93021 1.85125 7.32803 1.84969V1.85156ZM12.0043 3.0969C11.5074 3.0969 11.1043 3.49956 11.1043 3.9966C11.1043 4.49348 11.5074 4.89661 12.0043 4.89661C12.5012 4.89661 12.9043 4.49348 12.9043 3.9966C12.9043 3.49972 12.5012 3.09659 12.0043 3.09659V3.0969ZM8.00087 4.14848C5.87382 4.14848 4.14927 5.87303 4.14927 8.00008C4.14927 10.1271 5.87382 11.8509 8.00087 11.8509C10.1279 11.8509 11.8518 10.1271 11.8518 8.00008C11.8518 5.87303 10.1278 4.14848 8.00071 4.14848H8.00087ZM8.00085 5.50006C9.38149 5.50006 10.5009 6.61929 10.5009 8.00008C10.5009 9.38072 9.38149 10.5001 8.00085 10.5001C6.62006 10.5001 5.50083 9.38072 5.50083 8.00008C5.50083 6.61929 6.62006 5.50006 8.00085 5.50006Z" fill="#212129"/>
</svg>
