<svg width="6" height="16" viewBox="0 0 6 16" fill="none" xmlns="http://www.w3.org/2000/svg">
<path fill-rule="evenodd" clip-rule="evenodd" d="M3 2C2.58579 2 2.25 2.33579 2.25 2.75C2.25 3.16421 2.58579 3.5 3 3.5C3.41421 3.5 3.75 3.16421 3.75 2.75C3.75 2.33579 3.41421 2 3 2ZM0.75 2.75C0.75 1.50736 1.75736 0.5 3 0.5C4.24264 0.5 5.25 1.50736 5.25 2.75C5.25 3.99264 4.24264 5 3 5C1.75736 5 0.75 3.99264 0.75 2.75ZM3 7.25C2.58579 7.25 2.25 7.58579 2.25 8C2.25 8.41421 2.58579 8.75 3 8.75C3.41421 8.75 3.75 8.41421 3.75 8C3.75 7.58579 3.41421 7.25 3 7.25ZM0.75 8C0.75 6.75736 1.75736 5.75 3 5.75C4.24264 5.75 5.25 6.75736 5.25 8C5.25 9.24264 4.24264 10.25 3 10.25C1.75736 10.25 0.75 9.24264 0.75 8ZM2.25 13.25C2.25 12.8358 2.58579 12.5 3 12.5C3.41421 12.5 3.75 12.8358 3.75 13.25C3.75 13.6642 3.41421 14 3 14C2.58579 14 2.25 13.6642 2.25 13.25ZM3 11C1.75736 11 0.75 12.0074 0.75 13.25C0.75 14.4926 1.75736 15.5 3 15.5C4.24264 15.5 5.25 14.4926 5.25 13.25C5.25 12.0074 4.24264 11 3 11Z" fill="white"/>
</svg>
