<svg width="18" height="18" viewBox="0 0 18 18" fill="none" xmlns="http://www.w3.org/2000/svg">
<path d="M7.15768 15.0938C5.31519 14.8811 3.61444 13.8888 2.4806 12.4002C1.34676 10.9117 0.779845 9.06873 1.0633 7.15488C1.55936 3.25631 5.1026 0.49187 9.00016 0.988051C11.9056 1.34247 14.2442 3.39808 14.9528 6.2334C15.0237 6.51693 15.3071 6.6587 15.5197 6.58782C15.8032 6.51693 15.9449 6.2334 15.8741 6.02075C15.0237 2.83101 12.4017 0.49187 9.1419 0.0665711C4.67741 -0.500494 0.638115 2.61836 0.0711964 7.01312C-0.212263 9.13961 0.354656 11.2661 1.70109 12.9673C3.04752 14.6685 4.89001 15.7317 7.01595 16.0153H7.08681C7.29941 16.0153 7.512 15.8735 7.58287 15.59C7.58287 15.3773 7.44114 15.0938 7.15768 15.0938Z" fill="white"/>
<path d="M17.5039 9.49403H14.6694C14.3859 9.49403 14.1733 9.70667 14.1733 9.99021V13.8179C13.7481 13.5344 13.3229 13.3217 12.756 13.3217C11.4804 13.3217 10.4175 14.385 10.4175 15.6609C10.4175 16.9368 11.4804 18 12.756 18C14.0316 18 15.0945 16.9368 15.0945 15.6609V10.4155H17.5039C17.7874 10.4155 18 10.2029 18 9.91932C18 9.63579 17.7874 9.49403 17.5039 9.49403ZM12.756 17.0076C11.9765 17.0076 11.3387 16.3697 11.3387 15.59C11.3387 14.8103 11.9765 14.1723 12.756 14.1723C13.5355 14.1723 14.1733 14.8103 14.1733 15.59C14.1733 16.3697 13.5355 17.0076 12.756 17.0076Z" fill="white"/>
<path d="M8.07892 5.66634C6.80336 5.66634 5.74038 6.72958 5.74038 8.00548C5.74038 9.28138 6.80336 10.3446 8.07892 10.3446C9.35449 10.3446 10.4175 9.28138 10.4175 8.00548C10.4175 6.72958 9.35449 5.66634 8.07892 5.66634ZM8.07892 9.49403C7.29941 9.49403 6.66163 8.85608 6.66163 8.07636C6.66163 7.29665 7.29941 6.6587 8.07892 6.6587C8.85844 6.6587 9.49622 7.29665 9.49622 8.07636C9.49622 8.85608 8.85844 9.49403 8.07892 9.49403Z" fill="white"/>
</svg>
