<svg width="16" height="18" viewBox="0 0 16 18" fill="none" xmlns="http://www.w3.org/2000/svg">
<path d="M13.3529 7.58824L3.35294 2.2549C2.57685 1.84099 2.18881 1.63403 1.87208 1.67488C1.59565 1.71054 1.34664 1.85994 1.18509 2.08708C1 2.34732 1 2.7871 1 3.66667V9V14.3333C1 15.2129 1 15.6527 1.18509 15.9129C1.34664 16.1401 1.59565 16.2895 1.87208 16.3251C2.18881 16.366 2.57685 16.159 3.35294 15.7451L13.3529 10.4118C14.2124 9.95338 14.6422 9.72418 14.783 9.41899C14.9057 9.15313 14.9057 8.84687 14.783 8.58101C14.6422 8.27582 14.2124 8.04662 13.3529 7.58824Z" stroke="white" stroke-width="1.5" stroke-linecap="round" stroke-linejoin="round"/>
</svg>
