<svg width="24" height="12" viewBox="0 0 24 12" fill="none" xmlns="http://www.w3.org/2000/svg">
<path d="M20.3912 4.28212C20.183 4.28212 19.9772 4.2996 19.775 4.33437C19.451 3.23 18.8117 2.23234 17.9283 1.46942C16.831 0.521852 15.4262 0 13.9727 0C13.2044 0 12.4533 0.143432 11.74 0.426371C11.4724 0.532508 11.2967 0.79063 11.2967 1.07777V10.7772C11.2967 11.1643 11.6115 11.4782 11.9999 11.4782H20.3912C22.3811 11.4782 24 9.86415 24 7.88022C24 5.89619 22.3811 4.28212 20.3912 4.28212ZM20.3912 10.0761H12.703V1.57855C13.1149 1.46133 13.5403 1.40212 13.9727 1.40212C16.2437 1.40212 18.2146 3.08671 18.5571 5.32064C18.59 5.53483 18.7203 5.72186 18.9102 5.82725C19.1 5.93255 19.3281 5.94461 19.5281 5.8595C19.8015 5.74322 20.0919 5.68424 20.3912 5.68424C21.6057 5.68424 22.5938 6.66934 22.5938 7.88022C22.5938 9.09105 21.6057 10.0761 20.3912 10.0761Z" fill="white"/>
<path d="M9.17565 0.101043C8.78734 0.101043 8.47253 0.414922 8.47253 0.802083V10.7772C8.47253 11.1644 8.78734 11.4783 9.17565 11.4783C9.56397 11.4783 9.87878 11.1644 9.87878 10.7772V0.802083C9.87878 0.414922 9.56397 0.101043 9.17565 0.101043Z" fill="white"/>
<path d="M6.35154 1.85611C5.96323 1.85611 5.64842 2.16999 5.64842 2.55715V10.7772C5.64842 11.1644 5.96323 11.4783 6.35154 11.4783C6.73985 11.4783 7.05467 11.1644 7.05467 10.7772V2.55715C7.05467 2.16999 6.73985 1.85611 6.35154 1.85611Z" fill="white"/>
<path d="M3.52733 4.35498C3.13902 4.35498 2.82421 4.66886 2.82421 5.05602V10.7772C2.82421 11.1644 3.13902 11.4782 3.52733 11.4782C3.91565 11.4782 4.23046 11.1644 4.23046 10.7772V5.05602C4.23046 4.66886 3.91565 4.35498 3.52733 4.35498Z" fill="white"/>
<path d="M0.703125 6.6076C0.314812 6.6076 0 6.92148 0 7.30864V8.52457C0 8.91173 0.314812 9.22561 0.703125 9.22561C1.09144 9.22561 1.40625 8.91173 1.40625 8.52457V7.30864C1.40625 6.92148 1.09144 6.6076 0.703125 6.6076Z" fill="white"/>
</svg>
