<svg width="27" height="28" viewBox="0 0 27 28" fill="none" xmlns="http://www.w3.org/2000/svg">
<path fill-rule="evenodd" clip-rule="evenodd" d="M12.462 0.698218C9.88524 0.950502 7.50367 1.8998 5.41555 3.50694C4.39869 4.28956 3.07814 5.76038 2.31501 6.96019C1.98543 7.47838 1.34387 8.79145 1.11404 9.41809C0.857072 10.1188 0.58319 11.1896 0.448416 12.0205C0.283471 13.0374 0.283471 14.9683 0.448416 15.9852C0.681635 17.4229 1.05057 18.5851 1.68206 19.8718C2.37201 21.2774 3.08941 22.2738 4.23823 23.422C5.3871 24.5702 6.38408 25.2872 7.79055 25.9768C9.07795 26.6079 10.2408 26.9766 11.6793 27.2097C12.6968 27.3745 14.6288 27.3745 15.6463 27.2097C17.0848 26.9766 18.2476 26.6079 19.535 25.9768C20.9415 25.2872 21.9385 24.5702 23.0874 23.422C24.2362 22.2738 24.9536 21.2774 25.6435 19.8718C26.1018 18.9381 26.3323 18.3261 26.5792 17.3878C26.908 16.1381 26.9914 15.4531 26.9914 14.0029C26.9914 12.5526 26.908 11.8676 26.5792 10.6179C26.3323 9.6796 26.1018 9.06767 25.6435 8.13397C24.9536 6.72831 24.2362 5.7319 23.0874 4.58368C21.9385 3.43552 20.9415 2.71853 19.535 2.02897C18.2489 1.39842 17.063 1.02223 15.6724 0.803597C14.9051 0.682985 13.1919 0.626748 12.462 0.698218ZM14.6846 2.84222C17.3354 3.10003 19.6839 4.20995 21.5726 6.0976C23.4613 7.98524 24.5719 10.3324 24.8298 12.9816C25.0564 15.3088 24.4644 17.8455 23.228 19.8457C22.351 21.2643 20.9284 22.6861 19.5089 23.5626C17.5076 24.7983 14.9695 25.39 12.641 25.1635C9.99021 24.9057 7.64173 23.7958 5.75301 21.9081C3.86429 20.0205 2.75373 17.6733 2.49577 15.0241C2.26918 12.6969 2.86115 10.1602 4.09761 8.16006C4.97458 6.7414 6.39718 5.31962 7.81665 4.44314C9.81739 3.20776 12.3568 2.61581 14.6846 2.84222ZM9.59137 8.42502C7.7895 8.539 6.97459 8.64908 6.68275 8.81784C6.36628 9.00085 6.18098 9.33754 6.18463 9.7228C6.18782 10.0631 6.27071 10.2529 6.52032 10.4914C6.84071 10.7975 7.0103 10.8176 8.20813 10.6911C9.27505 10.5785 11.5775 10.4936 12.5405 10.5315C15.5154 10.6484 17.5352 11.0286 19.6133 11.8628C20.0872 12.053 20.202 12.0799 20.461 12.0614C21.3782 11.9959 21.7695 10.8689 21.0945 10.2365C20.813 9.97294 19.4152 9.44746 18.0735 9.10085C15.7628 8.504 12.4789 8.24233 9.59137 8.42502ZM10.3482 12.5981C9.21022 12.6374 7.80318 12.7628 7.45126 12.8565C6.97277 12.9838 6.65253 13.3929 6.65749 13.8706C6.66219 14.3268 6.85172 14.6358 7.25343 14.8424C7.48624 14.962 7.71998 14.9649 8.62571 14.8597C9.5838 14.7483 12.5545 14.7021 13.5974 14.7823C15.6876 14.9429 17.2263 15.271 18.6999 15.8703C19.3705 16.1429 19.6681 16.1702 20.0191 15.9913C20.6091 15.6904 20.7801 14.9347 20.3775 14.4071C20.239 14.2256 20.1148 14.145 19.6891 13.9601C18.3402 13.3744 16.6144 12.9479 14.7067 12.7289C14.0118 12.6491 12.1118 12.5365 11.7054 12.5511C11.5905 12.5552 10.9798 12.5764 10.3482 12.5981ZM9.74796 16.644C8.98066 16.6978 7.8204 16.826 7.63395 16.8775C7.2609 16.9806 6.8762 17.4981 6.8774 17.8954C6.87855 18.2903 7.19925 18.7374 7.58786 18.8857C7.80944 18.9702 7.87276 18.9702 8.74597 18.8843C10.0159 18.7593 11.8208 18.7222 12.9059 18.7987C14.8145 18.9333 16.0658 19.1898 17.421 19.7243C18.1386 20.0074 18.4342 20.0325 18.7824 19.8401C18.9067 19.7714 19.0799 19.6134 19.1674 19.4888C19.3069 19.29 19.3262 19.219 19.326 18.9062C19.3258 18.405 19.16 18.1699 18.6216 17.9067C17.5492 17.3824 15.8633 16.9534 14.0282 16.7379C13.3544 16.6587 10.4463 16.5949 9.74796 16.644Z" fill="white"/>
</svg>
