<svg width="30" height="38" viewBox="0 0 30 38" fill="none" xmlns="http://www.w3.org/2000/svg">
<path fill-rule="evenodd" clip-rule="evenodd" d="M15 3.13462C11.526 3.13462 8.70968 5.93284 8.70968 9.38461C8.70968 12.8364 11.526 15.6346 15 15.6346C18.474 15.6346 21.2903 12.8364 21.2903 9.38461C21.2903 5.93284 18.474 3.13462 15 3.13462ZM5.80645 9.38461C5.80645 4.33971 9.92254 0.25 15 0.25C20.0775 0.25 24.1935 4.33971 24.1935 9.38461C24.1935 14.4295 20.0775 18.5192 15 18.5192C9.92254 18.5192 5.80645 14.4295 5.80645 9.38461Z" fill="white"/>
<path fill-rule="evenodd" clip-rule="evenodd" d="M10.2491 25.25C6.19208 25.25 2.90323 28.5178 2.90323 32.5488C2.90323 32.7604 2.94216 32.9098 2.98297 32.9968C3.01743 33.0703 3.04699 33.0911 3.07164 33.1045C4.19977 33.7144 7.36278 34.8654 15 34.8654C22.6372 34.8654 25.8002 33.7144 26.9284 33.1045C26.953 33.0911 26.9826 33.0703 27.017 32.9968C27.0578 32.9098 27.0968 32.7604 27.0968 32.5488C27.0968 28.5178 23.8079 25.25 19.7509 25.25L10.2491 25.25ZM0 32.5488C0 26.9246 4.58867 22.3654 10.2491 22.3654L19.7509 22.3654C25.4113 22.3654 30 26.9246 30 32.5488C30 33.5812 29.6238 34.9312 28.316 35.6382C26.5836 36.5749 22.8672 37.75 15 37.75C7.13276 37.75 3.41636 36.5749 1.68397 35.6382C0.376189 34.9312 0 33.5812 0 32.5488Z" fill="white"/>
</svg>
