<svg width="20" height="20" viewBox="0 0 20 20" fill="none" xmlns="http://www.w3.org/2000/svg">
<path fill-rule="evenodd" clip-rule="evenodd" d="M18.2263 0.340866C17.5379 0.202189 16.3926 3.57628e-07 15.5 3.57628e-07C14.6074 3.57628e-07 13.4621 0.202189 12.7737 0.340866C12.0313 0.490411 11.4751 1.08082 11.3611 1.81133C11.2241 2.68826 11 4.29813 11 5.5C11 6.70187 11.2241 8.31174 11.3611 9.18867C11.4751 9.91918 12.0313 10.5096 12.7737 10.6591C13.4621 10.7978 14.6074 11 15.5 11C16.3926 11 17.5379 10.7978 18.2263 10.6591C18.9687 10.5096 19.5249 9.91918 19.6389 9.18867C19.7759 8.31174 20 6.70187 20 5.5C20 4.29813 19.7759 2.68826 19.6389 1.81133C19.5249 1.08082 18.9687 0.490411 18.2263 0.340866Z" fill="white"/>
<path fill-rule="evenodd" clip-rule="evenodd" d="M7.22631 19.6591C6.53788 19.7978 5.39261 20 4.5 20C3.60739 20 2.46212 19.7978 1.77369 19.6591C1.0313 19.5096 0.475126 18.9192 0.361057 18.1887C0.224125 17.3117 0 15.7019 0 14.5C0 13.2981 0.224125 11.6883 0.361057 10.8113C0.475126 10.0808 1.0313 9.49041 1.77369 9.34087C2.46212 9.20219 3.60739 9 4.5 9C5.39261 9 6.53788 9.20219 7.22631 9.34087C7.9687 9.49041 8.52487 10.0808 8.63894 10.8113C8.77588 11.6883 9 13.2981 9 14.5C9 15.7019 8.77588 17.3117 8.63894 18.1887C8.52487 18.9192 7.9687 19.5096 7.22631 19.6591Z" fill="white"/>
<path fill-rule="evenodd" clip-rule="evenodd" d="M18.317 13.3432C17.6381 13.2103 16.4283 13 15.5 13C14.5717 13 13.3619 13.2103 12.683 13.3432C12.0404 13.4689 11.5034 13.9447 11.3193 14.6079C11.1866 15.0857 11 15.857 11 16.5C11 17.143 11.1866 17.9143 11.3193 18.3921C11.5034 19.0553 12.0404 19.5311 12.683 19.6568C13.3619 19.7897 14.5717 20 15.5 20C16.4283 20 17.6381 19.7897 18.317 19.6568C18.9596 19.5311 19.4966 19.0553 19.6807 18.3921C19.8134 17.9143 20 17.143 20 16.5C20 15.857 19.8134 15.0857 19.6807 14.6079C19.4966 13.9447 18.9596 13.4689 18.317 13.3432Z" fill="white"/>
<path fill-rule="evenodd" clip-rule="evenodd" d="M7.31699 6.65685C6.63814 6.78973 5.42835 7 4.5 7C3.57165 7 2.36186 6.78973 1.68301 6.65685C1.04043 6.53107 0.503437 6.05534 0.319294 5.39214C0.186611 4.91427 0 4.14299 0 3.5C0 2.85701 0.18661 2.08573 0.319294 1.60786C0.503437 0.944664 1.04043 0.46893 1.683 0.343152C2.36186 0.210273 3.57165 0 4.5 0C5.42835 0 6.63814 0.210273 7.31699 0.343152C7.95957 0.46893 8.49656 0.944664 8.68071 1.60786C8.81339 2.08573 9 2.85701 9 3.5C9 4.14299 8.81339 4.91427 8.68071 5.39214C8.49656 6.05534 7.95957 6.53107 7.31699 6.65685Z" fill="white"/>
</svg>
