<svg width="20" height="20" viewBox="0 0 20 20" fill="none" xmlns="http://www.w3.org/2000/svg">
<path fill-rule="evenodd" clip-rule="evenodd" d="M15.5 1.57143C16.2172 1.57143 17.2237 1.74256 17.9095 1.88071C17.9902 1.89696 18.0551 1.96042 18.0693 2.05126C18.2065 2.92993 18.4118 4.43203 18.4118 5.5C18.4118 6.56797 18.2065 8.07007 18.0693 8.94874C18.0551 9.03958 17.9902 9.10304 17.9095 9.1193C17.2237 9.25744 16.2172 9.42857 15.5 9.42857C14.7828 9.42857 13.7763 9.25744 13.0905 9.1193C13.0098 9.10304 12.9449 9.03958 12.9307 8.94874C12.7935 8.07007 12.5882 6.56797 12.5882 5.5C12.5882 4.43203 12.7935 2.92993 12.9307 2.05126C12.9449 1.96042 13.0098 1.89696 13.0905 1.88071C13.7763 1.74256 14.7828 1.57143 15.5 1.57143ZM18.2263 0.340866C17.5379 0.202189 16.3926 3.57628e-07 15.5 3.57628e-07C14.6074 3.57628e-07 13.4621 0.202189 12.7737 0.340866C12.0313 0.490411 11.4751 1.08082 11.3611 1.81133C11.2241 2.68826 11 4.29813 11 5.5C11 6.70187 11.2241 8.31174 11.3611 9.18867C11.4751 9.91918 12.0313 10.5096 12.7737 10.6591C13.4621 10.7978 14.6074 11 15.5 11C16.3926 11 17.5379 10.7978 18.2263 10.6591C18.9687 10.5096 19.5249 9.91918 19.6389 9.18867C19.7759 8.31174 20 6.70187 20 5.5C20 4.29813 19.7759 2.68826 19.6389 1.81133C19.5249 1.08082 18.9687 0.490411 18.2263 0.340866Z" fill="white"/>
<path fill-rule="evenodd" clip-rule="evenodd" d="M4.5 18.4286C5.21723 18.4286 6.22366 18.2574 6.90946 18.1193C6.99018 18.103 7.05514 18.0396 7.06933 17.9487C7.20653 17.0701 7.41176 15.568 7.41176 14.5C7.41176 13.432 7.20653 11.9299 7.06933 11.0513C7.05514 10.9604 6.99018 10.897 6.90946 10.8807C6.22366 10.7426 5.21723 10.5714 4.5 10.5714C3.78277 10.5714 2.77633 10.7426 2.09054 10.8807C2.00982 10.897 1.94485 10.9604 1.93067 11.0513C1.79347 11.9299 1.58823 13.432 1.58823 14.5C1.58823 15.568 1.79347 17.0701 1.93067 17.9487C1.94485 18.0396 2.00982 18.103 2.09054 18.1193C2.77633 18.2574 3.78277 18.4286 4.5 18.4286ZM7.22631 19.6591C6.53788 19.7978 5.39261 20 4.5 20C3.60739 20 2.46212 19.7978 1.77369 19.6591C1.0313 19.5096 0.475126 18.9192 0.361057 18.1887C0.224125 17.3117 0 15.7019 0 14.5C0 13.2981 0.224125 11.6883 0.361057 10.8113C0.475126 10.0808 1.0313 9.49041 1.77369 9.34087C2.46212 9.20219 3.60739 9 4.5 9C5.39261 9 6.53788 9.20219 7.22631 9.34087C7.9687 9.49041 8.52487 10.0808 8.63894 10.8113C8.77588 11.6883 9 13.2981 9 14.5C9 15.7019 8.77588 17.3117 8.63894 18.1887C8.52487 18.9192 7.9687 19.5096 7.22631 19.6591Z" fill="white"/>
<path fill-rule="evenodd" clip-rule="evenodd" d="M15.5 14.6154C16.2611 14.6154 17.3376 14.7965 18.0168 14.9294C18.0926 14.9443 18.1376 14.9941 18.1523 15.0469C18.2824 15.5158 18.4118 16.0994 18.4118 16.5C18.4118 16.9006 18.2824 17.4842 18.1523 17.9531C18.1376 18.0059 18.0926 18.0557 18.0168 18.0706C17.3376 18.2035 16.2611 18.3846 15.5 18.3846C14.7389 18.3846 13.6624 18.2035 12.9832 18.0706C12.9074 18.0557 12.8624 18.0059 12.8477 17.9531C12.7176 17.4842 12.5882 16.9006 12.5882 16.5C12.5882 16.0994 12.7176 15.5158 12.8477 15.0469C12.8624 14.9941 12.9074 14.9443 12.9832 14.9294C13.6624 14.7965 14.7389 14.6154 15.5 14.6154ZM18.317 13.3432C17.6381 13.2103 16.4283 13 15.5 13C14.5717 13 13.3619 13.2103 12.683 13.3432C12.0404 13.4689 11.5034 13.9447 11.3193 14.6079C11.1866 15.0857 11 15.857 11 16.5C11 17.143 11.1866 17.9143 11.3193 18.3921C11.5034 19.0553 12.0404 19.5311 12.683 19.6568C13.3619 19.7897 14.5717 20 15.5 20C16.4283 20 17.6381 19.7897 18.317 19.6568C18.9596 19.5311 19.4966 19.0553 19.6807 18.3921C19.8134 17.9143 20 17.143 20 16.5C20 15.857 19.8134 15.0857 19.6807 14.6079C19.4966 13.9447 18.9596 13.4689 18.317 13.3432Z" fill="white"/>
<path fill-rule="evenodd" clip-rule="evenodd" d="M4.5 5.38462C5.26112 5.38462 6.33759 5.20353 7.01684 5.07057C7.09259 5.05575 7.13759 5.00592 7.15225 4.95312C7.28245 4.4842 7.41176 3.90057 7.41176 3.5C7.41176 3.09943 7.28245 2.5158 7.15225 2.04688C7.13759 1.99408 7.09259 1.94425 7.01684 1.92943C6.33759 1.79647 5.26112 1.61538 4.5 1.61538C3.73888 1.61538 2.66241 1.79647 1.98315 1.92943C1.90741 1.94425 1.86241 1.99408 1.84775 2.04688C1.71755 2.5158 1.58823 3.09943 1.58823 3.5C1.58823 3.90057 1.71755 4.4842 1.84775 4.95312C1.86241 5.00592 1.90741 5.05575 1.98316 5.07057C2.66241 5.20353 3.73888 5.38462 4.5 5.38462ZM7.31699 6.65685C6.63814 6.78973 5.42835 7 4.5 7C3.57165 7 2.36186 6.78973 1.68301 6.65685C1.04043 6.53107 0.503437 6.05534 0.319294 5.39214C0.186611 4.91427 0 4.14299 0 3.5C0 2.85701 0.186611 2.08573 0.319294 1.60786C0.503437 0.944664 1.04043 0.46893 1.683 0.343152C2.36185 0.210273 3.57165 0 4.5 0C5.42835 0 6.63814 0.210273 7.31699 0.343152C7.95957 0.46893 8.49656 0.944664 8.68071 1.60786C8.81339 2.08573 9 2.85701 9 3.5C9 4.14299 8.81339 4.91427 8.68071 5.39214C8.49656 6.05534 7.95957 6.53107 7.31699 6.65685Z" fill="white"/>
</svg>
