<svg width="28" height="20" viewBox="0 0 28 20" fill="none" xmlns="http://www.w3.org/2000/svg">
<path fill-rule="evenodd" clip-rule="evenodd" d="M11.6814 0.676228C7.21325 0.821566 5.21949 0.966436 4.18468 1.22113C3.38185 1.4187 2.7276 1.80743 2.14801 2.43122C1.53464 3.09131 1.25453 3.65861 1.05358 4.64801C0.536847 7.19146 0.537628 13.3711 1.05503 15.9178C1.25489 16.9016 1.54401 17.4868 2.14656 18.1273C2.75009 18.7689 3.48756 19.1816 4.35756 19.3646C6.16161 19.7441 12.3575 19.9965 16.6805 19.8666C20.9104 19.7396 23.0635 19.5683 24.023 19.2827C25.3044 18.9013 26.3216 17.9234 26.7589 16.6524C27.4238 14.7199 27.5401 7.67319 26.9561 4.70738C26.7468 3.64403 26.3534 2.88822 25.6804 2.25579C25.0874 1.69865 24.4368 1.36048 23.6384 1.19447C22.7613 1.01205 20.8688 0.848072 18.5031 0.749444C17.1787 0.694246 12.6289 0.6454 11.6814 0.676228ZM16.7847 2.7808C20.9055 2.90307 23.021 3.08788 23.676 3.38287C24.1985 3.6182 24.5794 4.01557 24.758 4.51153C24.896 4.89479 25.0317 5.70037 25.1255 6.69238C25.2412 7.91664 25.2581 12.1927 25.1523 13.4818C25.0292 14.982 24.8752 15.8731 24.6696 16.2763C24.4058 16.7932 23.876 17.1907 23.2629 17.3316C21.8034 17.6669 15.5679 17.9046 11.4211 17.783C8.06986 17.6848 5.73919 17.5257 4.82019 17.3324C3.86297 17.1311 3.29999 16.5374 3.09477 15.5127C2.63569 13.2206 2.63569 7.33799 3.09477 5.04586C3.2061 4.48997 3.39222 4.1116 3.71096 3.79306C4.20634 3.29794 4.66563 3.16349 6.35658 3.01857C9.15639 2.77856 13.4268 2.68123 16.7847 2.7808ZM11.343 10.2831V14.5093L11.4601 14.4352C11.5246 14.3944 13.1535 13.4493 15.0799 12.3351C17.0063 11.2208 18.5764 10.2915 18.5689 10.2701C18.5614 10.2486 17.032 9.34997 15.1704 8.27303C13.3088 7.19609 11.686 6.25694 11.5643 6.18596L11.343 6.05692V10.2831Z" fill="white"/>
</svg>
